<?xml version="1.0" encoding="UTF-8"?> <svg xmlns="http://www.w3.org/2000/svg" xmlns:xlink="http://www.w3.org/1999/xlink" version="1.1" id="Layer_1" x="0px" y="0px" width="45px" height="45px" viewBox="0 0 45 45" style="enable-background:new 0 0 45 45;" xml:space="preserve"> <style type="text/css"> .st0{fill:#1B1B1B;} .st1{fill:#0755E9;} </style> <g> <path d="M37.849,11.801L24.382,4.422c-1.179-0.645-2.585-0.646-3.764,0L7.151,11.801c-1.255,0.687-2.035,2.003-2.035,3.435v14.528 c0,1.432,0.78,2.747,2.035,3.435l13.467,7.379c0.589,0.322,1.235,0.484,1.882,0.484c0.646,0,1.293-0.162,1.882-0.484l13.467-7.379 c1.255-0.687,2.035-2.003,2.035-3.435V15.236C39.884,13.804,39.104,12.488,37.849,11.801z M37.233,29.764 c0,0.462-0.252,0.887-0.658,1.11l-13.466,7.379c-0.382,0.207-0.837,0.207-1.218,0L8.425,30.874 c-0.406-0.223-0.658-0.647-0.658-1.11V15.236c0-0.462,0.252-0.887,0.658-1.11l13.466-7.379c0.191-0.104,0.4-0.157,0.609-0.157 s0.418,0.053,0.608,0.157l13.467,7.379c0.406,0.223,0.658,0.647,0.658,1.11V29.764z"></path> <path class="st1" d="M32.811,15.332L22.5,20.98l-10.311-5.648c-0.641-0.355-1.448-0.115-1.8,0.526 c-0.352,0.642-0.117,1.447,0.526,1.8l10.259,5.621v10.993c0,0.733,0.594,1.326,1.326,1.326s1.326-0.593,1.326-1.326V23.277 l10.259-5.621c0.642-0.352,0.878-1.157,0.526-1.8C34.26,15.216,33.453,14.977,32.811,15.332z"></path> </g> </svg> 