<?xml version="1.0" encoding="UTF-8"?> <svg xmlns="http://www.w3.org/2000/svg" xmlns:xlink="http://www.w3.org/1999/xlink" version="1.1" id="Layer_1" x="0px" y="0px" width="165.986px" height="129.055px" viewBox="0 0 165.986 129.055" style="enable-background:new 0 0 165.986 129.055;" xml:space="preserve"> <style type="text/css"> .st0{fill:#FFFFFF;} .st1{opacity:0.3;} .st2{fill:#EFEFEF;} .st3{fill:#ADFE3A;} .st4{fill:#F55D3E;} .st5{fill:#F9B339;} .st6{fill:#1B1B1B;} .st7{fill:#0755E9;} .st8{fill:#04338C;} .st9{fill:#10F9DE;} .st10{fill:#2C163A;} .st11{fill:none;stroke:#0755E9;stroke-miterlimit:10;} .st12{fill:none;stroke:#1B1B1B;stroke-miterlimit:10;} .st13{fill:none;stroke:#10F9DE;stroke-miterlimit:10;} .st14{font-family:'Poppins-Light';} .st15{font-size:12.4867px;} </style> <g> <g> <g> <path class="st6" d="M153.978,129.055H60.259c-6.621,0-12.007-5.386-12.007-12.007V12.007C48.252,5.386,53.639,0,60.259,0h93.719 c6.621,0,12.007,5.386,12.007,12.007v105.04C165.986,123.668,160.599,129.055,153.978,129.055z M60.259,1.079 c-6.026,0-10.928,4.902-10.928,10.928v105.04c0,6.026,4.902,10.928,10.928,10.928h93.719c6.026,0,10.928-4.902,10.928-10.928 V12.007c0-6.026-4.902-10.928-10.928-10.928H60.259z"></path> </g> <path class="st9" d="M96.69,18.035H67.369c-2.678,0-4.857,2.179-4.857,4.857v8.994c0,2.678,2.179,4.857,4.857,4.857H96.69 c2.678,0,4.857-2.179,4.857-4.857v-8.994C101.547,20.214,99.368,18.035,96.69,18.035z"></path> <path class="st7" d="M148.679,96.902h-20.327c-5.166,0-9.354,4.188-9.354,9.354v0c0,5.166,4.188,9.354,9.354,9.354h20.327 c5.166,0,9.354-4.188,9.354-9.354v0C158.033,101.09,153.845,96.902,148.679,96.902z"></path> <g> <path class="st6" d="M93.493,40.474H64.172c-2.678,0-4.857-2.179-4.857-4.857v-8.994c0-2.678,2.179-4.857,4.857-4.857h29.321 c2.678,0,4.857,2.179,4.857,4.857v8.994C98.35,38.295,96.171,40.474,93.493,40.474z M64.172,22.845 c-2.083,0-3.778,1.695-3.778,3.778v8.994c0,2.083,1.695,3.778,3.778,3.778h29.321c2.083,0,3.778-1.695,3.778-3.778v-8.994 c0-2.083-1.695-3.778-3.778-3.778H64.172z"></path> </g> <g> <path class="st6" d="M150.156,66.017H64.172c-2.678,0-4.857-2.179-4.857-4.857v-8.994c0-2.678,2.179-4.857,4.857-4.857h85.984 c2.678,0,4.857,2.179,4.857,4.857v8.994C155.013,63.838,152.834,66.017,150.156,66.017z M64.172,48.388 c-2.083,0-3.778,1.695-3.778,3.778v8.994c0,2.083,1.695,3.778,3.778,3.778h85.984c2.083,0,3.778-1.695,3.778-3.778v-8.994 c0-2.083-1.695-3.778-3.778-3.778H64.172z"></path> </g> <g> <path class="st6" d="M150.156,91.56H64.172c-2.678,0-4.857-2.179-4.857-4.857v-8.994c0-2.678,2.179-4.857,4.857-4.857h85.984 c2.678,0,4.857,2.179,4.857,4.857v8.994C155.013,89.381,152.834,91.56,150.156,91.56z M64.172,73.932 c-2.083,0-3.778,1.695-3.778,3.778v8.994c0,2.083,1.695,3.778,3.778,3.778h85.984c2.083,0,3.778-1.695,3.778-3.778v-8.994 c0-2.083-1.695-3.778-3.778-3.778H64.172z"></path> </g> <g> <path class="st6" d="M75.864,36.426c-0.092,0-0.186-0.023-0.271-0.073c-0.257-0.15-0.345-0.48-0.195-0.738l5.397-9.264 c0.15-0.257,0.481-0.344,0.738-0.195c0.257,0.15,0.345,0.48,0.195,0.738l-5.397,9.264C76.23,36.33,76.049,36.426,75.864,36.426z"></path> </g> <g> <g> <path d="M69.231,57.203c0,0.82-0.664,1.484-1.484,1.484c-0.82,0-1.484-0.664-1.484-1.484s0.664-1.484,1.484-1.484 C68.567,55.719,69.231,56.383,69.231,57.203z"></path> </g> </g> <g> <g> <circle cx="73.144" cy="57.203" r="1.484"></circle> </g> </g> <g> <g> <circle cx="78.54" cy="57.203" r="1.484"></circle> </g> </g> <g> <g> <path d="M85.421,57.203c0,0.82-0.664,1.484-1.484,1.484c-0.82,0-1.484-0.664-1.484-1.484s0.664-1.484,1.484-1.484 C84.756,55.719,85.421,56.383,85.421,57.203z"></path> </g> </g> <g> <g> <circle cx="89.333" cy="57.203" r="1.484"></circle> </g> </g> <g> <g> <path d="M96.214,57.203c0,0.82-0.664,1.484-1.484,1.484c-0.82,0-1.484-0.664-1.484-1.484s0.664-1.484,1.484-1.484 C95.549,55.719,96.214,56.383,96.214,57.203z"></path> </g> </g> <g> <path class="st6" d="M146.63,117.104h-21.46c-4.622,0-8.383-3.76-8.383-8.383c0-4.622,3.76-8.383,8.383-8.383h21.46 c4.622,0,8.383,3.76,8.383,8.383C155.013,113.343,151.252,117.104,146.63,117.104z M125.17,101.418 c-4.027,0-7.303,3.276-7.303,7.303c0,4.027,3.276,7.303,7.303,7.303h21.46c4.027,0,7.303-3.276,7.303-7.303 c0-4.027-3.276-7.303-7.303-7.303H125.17z"></path> </g> <g> <path class="st6" d="M154.473,14.121c-0.138,0-0.276-0.053-0.382-0.158L149.1,8.971c-0.211-0.211-0.211-0.552,0-0.763 c0.211-0.211,0.552-0.211,0.763,0l4.992,4.992c0.211,0.211,0.211,0.552,0,0.763C154.749,14.068,154.611,14.121,154.473,14.121z"></path> </g> <g> <path class="st6" d="M149.481,14.121c-0.138,0-0.276-0.053-0.382-0.158c-0.211-0.211-0.211-0.552,0-0.763l4.992-4.992 c0.211-0.211,0.552-0.211,0.763,0c0.211,0.211,0.211,0.552,0,0.763l-4.992,4.992C149.758,14.068,149.62,14.121,149.481,14.121z"></path> </g> </g> <g> <text transform="matrix(1 0 0 1 127.4015 112.9962)" class="st2 st14 st15">Go</text> </g> <g> <g> <path class="st10" d="M38.503,102.641h-31.4c-1.233,0-2.236-1.003-2.236-2.236c0-1.233,1.003-2.236,2.236-2.236h31.4 c1.233,0,2.236,1.003,2.236,2.236C40.739,101.638,39.736,102.641,38.503,102.641z M7.103,98.79c-0.891,0-1.615,0.725-1.615,1.615 c0,0.891,0.724,1.615,1.615,1.615h31.4c0.891,0,1.615-0.725,1.615-1.615c0-0.891-0.724-1.615-1.615-1.615H7.103z"></path> </g> <g> <path class="st10" d="M33.642,129.055H11.964c-1.24,0-2.28-0.93-2.419-2.162l-2.751-24.527c-0.01-0.088,0.018-0.176,0.077-0.241 c0.059-0.066,0.143-0.103,0.231-0.103h31.4c0.088,0,0.172,0.038,0.231,0.103c0.059,0.066,0.087,0.154,0.077,0.241l-2.751,24.527 C35.923,128.125,34.883,129.055,33.642,129.055z M7.45,102.641l2.712,24.182c0.103,0.918,0.878,1.611,1.802,1.611h21.678 c0.924,0,1.699-0.693,1.802-1.611l2.712-24.182H7.45z"></path> </g> <g> <path class="st3" d="M22.747,98.48c-1.268-9.058,2.085-23.182,7.436-30.599c4.379-6.07,10.185-10.962,16.531-14.976 c2.634-1.666,6.152,0.136,6.239,3.252c0.025,0.889-0.064,1.781-0.272,2.646c-0.692,2.878-2.691,5.415-5.327,6.761 c-1.912,0.976-4.345,1.554-5.203,3.521c-0.827,1.893,0.29,4.078,0.049,6.129c-0.226,1.925-1.618,3.506-3.11,4.743 c-4.003,3.318-10.192,5.374-15.388,5.198L22.747,98.48z"></path> <path class="st10" d="M22.747,98.79c-0.152,0-0.285-0.112-0.307-0.267c-1.299-9.28,2.132-23.395,7.492-30.824 c4.004-5.549,9.594-10.615,16.617-15.056c1.352-0.855,3.008-0.914,4.429-0.156c1.388,0.74,2.242,2.108,2.286,3.662 c0.026,0.927-0.068,1.845-0.281,2.727c-0.715,2.972-2.766,5.575-5.488,6.964c-0.451,0.23-0.934,0.441-1.402,0.644 c-1.567,0.681-3.047,1.325-3.658,2.725c-0.449,1.029-0.276,2.17-0.092,3.377c0.133,0.873,0.27,1.775,0.165,2.664 c-0.199,1.697-1.253,3.314-3.22,4.946c-4.019,3.331-10.283,5.448-15.596,5.27c-0.011,0-0.021-0.001-0.031-0.003 c-0.867,4.604-1.134,9.196-0.605,12.974c0.024,0.17-0.094,0.326-0.264,0.35C22.776,98.789,22.761,98.79,22.747,98.79z M23.779,84.847c5.15,0.157,11.219-1.902,15.112-5.129c1.839-1.524,2.82-3.01,3-4.54c0.095-0.806-0.036-1.667-0.163-2.499 c-0.189-1.242-0.384-2.526,0.137-3.719c0.709-1.624,2.371-2.347,3.979-3.046c0.459-0.2,0.934-0.406,1.368-0.628 c2.563-1.308,4.494-3.759,5.167-6.557c0.199-0.829,0.288-1.692,0.264-2.565c-0.037-1.328-0.769-2.498-1.957-3.131 c-1.222-0.651-2.645-0.601-3.806,0.133c-6.955,4.399-12.488,9.41-16.445,14.895C27.433,72.222,25.046,78.512,23.779,84.847z"></path> </g> <g> <path class="st10" d="M23.309,85.657c-0.048,0-0.096-0.011-0.141-0.034c-0.153-0.078-0.213-0.265-0.135-0.417 c5.286-10.329,13.056-19.374,22.47-26.157c0.139-0.1,0.333-0.069,0.433,0.07c0.1,0.139,0.069,0.333-0.07,0.433 c-9.335,6.726-17.039,15.694-22.281,25.937C23.531,85.595,23.422,85.657,23.309,85.657z"></path> </g> <g> <path class="st3" d="M22.402,94.686c-0.857-4.171-4.531-9.845-8.036-12.264c-2.868-1.98-6.179-3.22-9.589-3.991 c-1.416-0.32-2.678,1.02-2.23,2.4c0.128,0.394,0.306,0.771,0.532,1.118c0.753,1.155,2.025,1.956,3.392,2.135 c0.991,0.13,2.149,0.004,2.832,0.733c0.658,0.702,0.509,1.834,0.935,2.697c0.399,0.809,1.257,1.286,2.104,1.596 c2.274,0.831,5.31,0.768,7.562-0.12L22.402,94.686z"></path> <path class="st10" d="M22.402,94.996c-0.144,0-0.273-0.101-0.304-0.248c-0.347-1.687-1.144-3.595-2.198-5.425 c-2.323,0.877-5.385,0.911-7.664,0.077c-1.16-0.424-1.904-0.996-2.276-1.75c-0.195-0.394-0.277-0.822-0.357-1.237 c-0.103-0.534-0.201-1.039-0.526-1.385c-0.442-0.471-1.16-0.521-1.92-0.573c-0.24-0.017-0.487-0.034-0.726-0.065 C4.972,84.2,3.622,83.35,2.819,82.118c-0.239-0.366-0.429-0.767-0.567-1.192C2.01,80.18,2.184,79.385,2.719,78.8 c0.546-0.599,1.342-0.85,2.126-0.673c3.795,0.858,7.057,2.217,9.697,4.039c3.54,2.443,7.278,8.148,8.164,12.457 c0.035,0.168-0.074,0.332-0.241,0.366C22.443,94.994,22.422,94.996,22.402,94.996z M4.352,78.692 c-0.442,0-0.864,0.185-1.175,0.525c-0.382,0.419-0.507,0.985-0.335,1.516c0.121,0.373,0.288,0.725,0.497,1.045 c0.705,1.082,1.892,1.829,3.172,1.996c0.22,0.029,0.447,0.045,0.688,0.061c0.846,0.058,1.722,0.118,2.33,0.768 c0.447,0.477,0.567,1.095,0.682,1.692c0.076,0.391,0.147,0.761,0.304,1.08c0.298,0.603,0.93,1.075,1.933,1.442 c2.117,0.774,4.95,0.754,7.13-0.037c-1.517-2.495-3.484-4.788-5.39-6.104c-2.574-1.777-5.764-3.104-9.481-3.944 C4.589,78.706,4.47,78.692,4.352,78.692z"></path> </g> <g> <path class="st10" d="M20.106,89.322c-0.076,0-0.153-0.028-0.213-0.085c-3.878-3.658-8.634-6.377-13.754-7.864 c-0.164-0.048-0.259-0.22-0.211-0.384c0.048-0.165,0.22-0.259,0.384-0.211c5.213,1.514,10.057,4.284,14.006,8.009 c0.125,0.118,0.13,0.314,0.013,0.439C20.271,89.289,20.189,89.322,20.106,89.322z"></path> </g> <g> <path class="st3" d="M22.913,88.508c-0.148-5.32-0.841-10.625-2.063-15.804c-0.587-2.489-1.31-4.982-2.618-7.18 c-2.41-4.052-6.544-6.714-10.531-9.229c-1.13-0.713-2.301-1.441-3.622-1.645c-1.32-0.204-2.84,0.258-3.474,1.434 c-0.686,1.273-0.105,2.908,0.887,3.96s2.324,1.704,3.508,2.534c1.184,0.83,2.298,1.974,2.465,3.41 c0.221,1.907-1.255,3.976-0.283,5.632c0.735,1.252,2.431,1.449,3.881,1.513c1.45,0.064,3.15,0.28,3.863,1.544 c0.535,0.948,0.302,2.186,0.83,3.138c1.07,1.932,5.108,2.123,6.485,3.85L22.913,88.508z"></path> <path class="st10" d="M22.913,88.818c-0.167,0-0.305-0.133-0.31-0.302c-0.061-2.188-0.215-4.377-0.46-6.556 c-0.054-0.018-0.104-0.052-0.143-0.1c-0.595-0.746-1.813-1.212-2.991-1.662c-1.426-0.545-2.901-1.109-3.522-2.231 c-0.291-0.525-0.37-1.108-0.447-1.671c-0.073-0.535-0.142-1.04-0.381-1.465c-0.625-1.11-2.174-1.324-3.606-1.387 c-1.603-0.071-3.347-0.324-4.135-1.666c-0.633-1.079-0.339-2.285-0.055-3.452c0.188-0.771,0.382-1.567,0.297-2.301 c-0.131-1.124-0.916-2.198-2.335-3.192c-0.356-0.25-0.736-0.489-1.102-0.72c-0.854-0.539-1.738-1.097-2.453-1.855 c-1-1.061-1.72-2.865-0.935-4.32c0.745-1.382,2.489-1.794,3.794-1.594c1.405,0.217,2.645,0.999,3.74,1.689 c3.812,2.404,8.132,5.13,10.631,9.333c1.367,2.298,2.083,4.851,2.653,7.267c1.226,5.194,1.923,10.532,2.071,15.867 c0.005,0.171-0.13,0.314-0.301,0.319C22.919,88.818,22.916,88.818,22.913,88.818z M3.475,54.915 c-0.989,0-2.091,0.381-2.595,1.317c-0.639,1.184-0.012,2.696,0.84,3.6c0.662,0.701,1.474,1.214,2.333,1.756 c0.373,0.235,0.759,0.479,1.127,0.737c1.57,1.1,2.443,2.321,2.595,3.629c0.098,0.844-0.11,1.696-0.31,2.52 c-0.267,1.095-0.519,2.129-0.013,2.991c0.636,1.083,2.119,1.294,3.627,1.36c1.602,0.071,3.345,0.328,4.119,1.702 c0.298,0.528,0.378,1.117,0.456,1.686c0.072,0.53,0.141,1.031,0.375,1.454c0.512,0.924,1.879,1.447,3.201,1.952 c1.019,0.39,2.067,0.79,2.8,1.397c-0.347-2.772-0.841-5.526-1.482-8.24c-0.559-2.368-1.259-4.866-2.583-7.093 c-2.424-4.075-6.677-6.758-10.429-9.125c-1.043-0.658-2.226-1.404-3.503-1.601C3.855,54.929,3.667,54.915,3.475,54.915z"></path> </g> <g> <path class="st10" d="M22.531,82.979c-0.137,0-0.262-0.091-0.299-0.229C20.262,75.48,15.48,67.836,9.11,61.778 c-0.124-0.118-0.129-0.314-0.011-0.439c0.118-0.124,0.315-0.129,0.439-0.011c6.45,6.134,11.295,13.883,13.293,21.259 c0.045,0.165-0.053,0.336-0.218,0.38C22.585,82.975,22.558,82.979,22.531,82.979z"></path> </g> </g> </g> </svg> 