<?xml version="1.0" encoding="UTF-8"?> <svg xmlns="http://www.w3.org/2000/svg" xmlns:xlink="http://www.w3.org/1999/xlink" version="1.1" id="Layer_1" x="0px" y="0px" width="250.195px" height="119.126px" viewBox="0 0 250.195 119.126" style="enable-background:new 0 0 250.195 119.126;" xml:space="preserve"> <style type="text/css"> .st0{fill:#FFFFFF;} .st1{opacity:0.3;} .st2{fill:#EFEFEF;} .st3{fill:#ADFE3A;} .st4{fill:#F55D3E;} .st5{fill:#F9B339;} .st6{fill:#1B1B1B;} .st7{fill:#0755E9;} .st8{fill:#04338C;} .st9{fill:#10F9DE;} .st10{fill:#2C163A;} .st11{fill:none;stroke:#0755E9;stroke-miterlimit:10;} .st12{fill:none;stroke:#1B1B1B;stroke-miterlimit:10;} .st13{fill:none;stroke:#10F9DE;stroke-miterlimit:10;} .st14{font-family:'Poppins-Light';} .st15{font-size:12.4867px;} </style> <g> <g> <g> <path class="st6" d="M202.423,119.126H10.849C4.867,119.126,0,114.259,0,108.277V38.25c0-0.353,0.286-0.638,0.638-0.638 c0.352,0,0.638,0.285,0.638,0.638v70.027c0,5.279,4.294,9.573,9.573,9.573h191.574c5.279,0,9.572-4.294,9.572-9.573V10.849 c0-5.279-4.294-9.573-9.572-9.573H10.849c-5.278,0-9.573,4.294-9.573,9.573V42.04c0,0.353-0.286,0.638-0.638,0.638 C0.286,42.678,0,42.392,0,42.04V10.849C0,4.867,4.867,0,10.849,0h191.574c5.982,0,10.849,4.867,10.849,10.849v97.428 C213.271,114.259,208.405,119.126,202.423,119.126z"></path> </g> <g> <g> <ellipse transform="matrix(0.2298 -0.9732 0.9732 0.2298 -15.8703 40.9072)" class="st9" cx="17.909" cy="30.48" rx="5.678" ry="5.677"></ellipse> <path class="st6" d="M17.909,36.796c-3.483,0-6.316-2.833-6.316-6.316c0-3.483,2.833-6.316,6.316-6.316 c3.482,0,6.316,2.833,6.316,6.316C24.225,33.963,21.391,36.796,17.909,36.796z M17.909,25.441c-2.779,0-5.039,2.26-5.039,5.039 s2.261,5.039,5.039,5.039c2.779,0,5.04-2.26,5.04-5.039S20.688,25.441,17.909,25.441z"></path> </g> <g> <path class="st6" d="M64.336,34.469H37.054c-2.199,0-3.989-1.789-3.989-3.989c0-2.199,1.789-3.989,3.989-3.989h27.282 c2.199,0,3.989,1.789,3.989,3.989C68.324,32.68,66.535,34.469,64.336,34.469z M37.054,27.768c-1.495,0-2.712,1.217-2.712,2.712 c0,1.496,1.217,2.712,2.712,2.712h27.282c1.496,0,2.712-1.217,2.712-2.712c0-1.496-1.217-2.712-2.712-2.712H37.054z"></path> </g> <g> <path class="st6" d="M67.686,43.908h-32.44c-0.352,0-0.638-0.285-0.638-0.638c0-0.353,0.286-0.638,0.638-0.638h32.44 c0.353,0,0.638,0.285,0.638,0.638C68.324,43.622,68.039,43.908,67.686,43.908z"></path> </g> <g> <path class="st6" d="M67.686,50.29H27.248c-0.352,0-0.638-0.285-0.638-0.638c0-0.353,0.286-0.638,0.638-0.638h40.438 c0.353,0,0.638,0.285,0.638,0.638C68.324,50.004,68.039,50.29,67.686,50.29z"></path> </g> <g> <path class="st6" d="M67.686,58.348H17.438c-0.352,0-0.638-0.285-0.638-0.638c0-0.353,0.286-0.638,0.638-0.638h50.248 c0.353,0,0.638,0.285,0.638,0.638C68.324,58.063,68.039,58.348,67.686,58.348z"></path> </g> </g> <polyline class="st11" points="86.226,96.692 95.64,89.399 108.227,93.49 137.492,68.001 160.148,68.001 198.417,36.871 "></polyline> <path class="st12" d="M191.024,100.527H92.096c-4.052,0-7.337-3.285-7.337-7.337V25.936c0-4.052,3.285-7.337,7.337-7.337h98.928 c4.052,0,7.337,3.285,7.337,7.337V93.19C198.362,97.242,195.077,100.527,191.024,100.527z"></path> <path class="st7" d="M56.694,80.936H26.479c-5.166,0-9.354,4.188-9.354,9.354v0c0,5.166,4.188,9.354,9.354,9.354h30.215 c5.166,0,9.354-4.188,9.354-9.354v0C66.048,85.124,61.86,80.936,56.694,80.936z"></path> <g> <path class="st6" d="M54.645,101.138H23.297c-4.622,0-8.383-3.76-8.383-8.383c0-4.622,3.76-8.383,8.383-8.383h31.348 c4.622,0,8.383,3.76,8.383,8.383C63.028,97.378,59.267,101.138,54.645,101.138z M23.297,85.452c-4.027,0-7.303,3.276-7.303,7.303 c0,4.027,3.276,7.303,7.303,7.303h31.348c4.027,0,7.303-3.276,7.303-7.303c0-4.027-3.276-7.303-7.303-7.303H23.297z"></path> </g> <g> <text transform="matrix(1 0 0 1 27.4464 95.9745)" class="st2 st14 st15">25%</text> </g> </g> <g> <g> <g> <path class="st3" d="M219.292,75.686c-3.327-7.262-4.83-20.872-1.719-28.229c3.111-7.357,9.414-13.298,16.942-15.97 c1.391-0.494,2.867-0.884,4.329-0.692c1.463,0.193,2.913,1.084,3.392,2.48c0.661,1.926-0.715,4.005-2.407,5.137 c-1.692,1.133-3.718,1.69-5.404,2.831c-1.686,1.141-3.043,3.24-2.353,5.155c0.712,1.977,3.344,3.082,3.361,5.183 c0.013,1.683-1.694,2.813-3.242,3.474c-1.548,0.661-3.34,1.372-3.894,2.962c-0.699,2.004,1.017,4.067,1.001,6.189 c-0.02,2.661-2.62,4.471-4.938,5.779C222.044,71.295,219.419,73.028,219.292,75.686L219.292,75.686z"></path> <path class="st6" d="M219.293,75.982c-0.114,0-0.22-0.066-0.269-0.172c-3.378-7.373-4.832-21.114-1.722-28.468 c3.134-7.411,9.532-13.442,17.115-16.134c1.316-0.467,2.877-0.914,4.467-0.706c1.727,0.227,3.153,1.278,3.633,2.676 c0.727,2.118-0.797,4.325-2.522,5.479c-0.86,0.575-1.809,1.008-2.726,1.427c-0.909,0.415-1.848,0.843-2.677,1.404 c-1.539,1.041-2.896,2.991-2.24,4.81c0.289,0.802,0.947,1.48,1.583,2.136c0.877,0.905,1.785,1.84,1.795,3.145 c0.015,1.884-1.852,3.078-3.421,3.748l-0.173,0.074c-1.438,0.612-3.067,1.306-3.558,2.714c-0.37,1.061,0.008,2.167,0.407,3.338 c0.304,0.89,0.618,1.81,0.61,2.757c-0.021,2.815-2.73,4.703-5.089,6.034c-2.487,1.403-4.804,3.036-4.919,5.456 c-0.007,0.136-0.105,0.25-0.239,0.276C219.33,75.98,219.311,75.982,219.293,75.982z M238.06,31.041 c-1.215,0-2.408,0.357-3.445,0.725c-7.43,2.637-13.698,8.546-16.769,15.807c-2.928,6.923-1.721,19.642,1.319,27.075 c0.613-2.14,2.765-3.628,5.051-4.919c2.219-1.252,4.769-3.012,4.788-5.524c0.006-0.846-0.291-1.718-0.579-2.561 c-0.414-1.214-0.843-2.47-0.406-3.723c0.577-1.654,2.334-2.403,3.884-3.063l0.173-0.074c1.404-0.599,3.075-1.641,3.062-3.2 c-0.008-1.068-0.795-1.879-1.628-2.738c-0.68-0.701-1.383-1.426-1.715-2.348c-0.763-2.117,0.743-4.335,2.465-5.5 c0.87-0.588,1.832-1.028,2.763-1.452c0.896-0.409,1.822-0.831,2.642-1.38c1.542-1.032,2.917-2.973,2.292-4.796 c-0.464-1.351-1.917-2.12-3.151-2.283C238.558,31.056,238.308,31.041,238.06,31.041z"></path> </g> <g> <path class="st6" d="M219.562,83.099c-0.15,0-0.278-0.113-0.294-0.265c-1.057-10.03-0.693-19.29,1.053-26.779 c2.161-9.273,6.368-15.841,12.503-19.522c0.14-0.084,0.322-0.039,0.406,0.101c0.084,0.14,0.039,0.322-0.101,0.406 c-5.992,3.596-10.107,10.039-12.231,19.15c-1.731,7.425-2.091,16.618-1.041,26.583c0.017,0.162-0.1,0.308-0.263,0.325 C219.582,83.098,219.572,83.099,219.562,83.099z"></path> </g> </g> <g> <g> <path class="st3" d="M222.451,80.049c1.404-4.605,6.168-11.342,10.512-13.416c4.345-2.073,9.562-2.232,14.025-0.427 c0.824,0.333,1.646,0.748,2.229,1.419c0.583,0.672,0.88,1.654,0.538,2.474c-0.472,1.133-1.923,1.52-3.139,1.354 c-1.216-0.166-2.352-0.724-3.569-0.884c-1.217-0.16-2.667,0.244-3.122,1.384c-0.469,1.176,0.276,2.727-0.557,3.681 c-0.667,0.764-1.888,0.591-2.851,0.27c-0.962-0.321-2.055-0.717-2.94-0.221c-1.116,0.624-1.167,2.241-2.023,3.191 c-1.073,1.192-2.969,0.968-4.537,0.631C225.448,79.169,223.571,78.901,222.451,80.049L222.451,80.049z"></path> <path class="st6" d="M222.451,80.345c-0.052,0-0.104-0.014-0.151-0.041c-0.117-0.069-0.172-0.21-0.132-0.341 c1.432-4.698,6.298-11.511,10.668-13.596c4.405-2.103,9.738-2.265,14.263-0.434c0.793,0.32,1.691,0.749,2.341,1.5 c0.717,0.826,0.947,1.918,0.588,2.782c-0.543,1.304-2.169,1.709-3.452,1.533c-0.627-0.085-1.232-0.271-1.817-0.451 c-0.597-0.183-1.161-0.356-1.749-0.433c-1.101-0.144-2.419,0.221-2.809,1.2c-0.181,0.453-0.157,0.985-0.132,1.548 c0.035,0.782,0.071,1.59-0.477,2.218c-0.624,0.715-1.72,0.839-3.167,0.356l-0.108-0.036c-0.913-0.305-1.856-0.621-2.594-0.208 c-0.556,0.311-0.82,0.942-1.1,1.611c-0.223,0.532-0.453,1.081-0.848,1.52c-1.175,1.306-3.193,1.072-4.819,0.722 c-1.65-0.355-3.311-0.544-4.291,0.461C222.606,80.314,222.529,80.345,222.451,80.345z M224.782,78.919 c0.734,0,1.517,0.131,2.296,0.299c1.471,0.316,3.283,0.539,4.256-0.54c0.328-0.364,0.529-0.844,0.742-1.353 c0.306-0.732,0.623-1.488,1.357-1.899c0.967-0.54,2.084-0.167,3.071,0.163l0.107,0.036c0.839,0.279,1.96,0.474,2.534-0.184 c0.392-0.449,0.363-1.107,0.332-1.803c-0.027-0.601-0.054-1.221,0.174-1.793c0.526-1.318,2.149-1.738,3.435-1.567 c0.637,0.083,1.252,0.272,1.846,0.454c0.589,0.18,1.145,0.351,1.724,0.43c1.066,0.146,2.404-0.16,2.827-1.175 c0.312-0.748-0.021-1.627-0.488-2.167c-0.569-0.655-1.389-1.045-2.116-1.339c-4.374-1.769-9.528-1.613-13.787,0.419 c-3.976,1.898-8.384,7.86-10.064,12.373C223.552,79.017,224.149,78.919,224.782,78.919z"></path> </g> <g> <path class="st6" d="M219.727,83.662c-0.059,0-0.12-0.018-0.172-0.055c-0.133-0.095-0.164-0.279-0.069-0.412 c4.74-6.633,14.256-17.464,24.743-15.505c0.161,0.03,0.266,0.184,0.236,0.345c-0.03,0.161-0.185,0.265-0.345,0.236 c-10.546-1.973-20.403,10.019-24.153,15.267C219.91,83.619,219.819,83.662,219.727,83.662z"></path> </g> </g> <g> <path class="st6" d="M228.995,119.126h-24.747c-0.163,0,9.714-0.132,9.714-0.296c0-0.163-8.298-0.296-8.135-0.296h22.896 l2.907-34.844h-19.287c-0.163,0-0.296-0.132-0.296-0.296c0-0.163,0.132-0.296,0.296-0.296h19.608 c0.083,0,0.162,0.035,0.218,0.096c0.056,0.061,0.084,0.142,0.077,0.225l-2.956,35.436 C229.276,119.008,229.148,119.126,228.995,119.126z"></path> </g> </g> </g> </svg> 