<?xml version="1.0" encoding="UTF-8"?> <svg xmlns="http://www.w3.org/2000/svg" xmlns:xlink="http://www.w3.org/1999/xlink" version="1.1" id="Layer_1" x="0px" y="0px" width="45px" height="45px" viewBox="0 0 45 45" style="enable-background:new 0 0 45 45;" xml:space="preserve"> <style type="text/css"> .st0{fill:#1B1B1B;} .st1{fill:#0755E9;} </style> <g> <path class="st1" d="M21.619,12.219c0-1.614-1.313-2.927-2.927-2.927H11.96c-1.614,0-2.927,1.313-2.927,2.927v6.732 c0,1.614,1.313,2.927,2.927,2.927h6.732c1.614,0,2.927-1.313,2.927-2.927V12.219z M19.989,18.471c0,0.981-0.798,1.779-1.778,1.779 h-5.77c-0.98,0-1.778-0.798-1.778-1.779V12.7c0-0.98,0.798-1.777,1.778-1.777h5.77c0.98,0,1.778,0.798,1.778,1.777V18.471z"></path> <path class="st1" d="M18.642,13.143c0.384,0.384,0.384,1.006,0,1.39l-3.494,3.494c-0.184,0.184-0.434,0.288-0.695,0.288 c-0.261,0-0.511-0.104-0.695-0.288L12.01,16.28c-0.384-0.384-0.384-1.006,0-1.39c0.384-0.384,1.006-0.384,1.39,0l1.052,1.052 l2.799-2.799C17.635,12.759,18.258,12.759,18.642,13.143L18.642,13.143z"></path> <g> <g> <path class="st0" d="M36.688,3.463H8.312c-2.55,0-4.624,2.075-4.624,4.625v28.826c0,2.55,2.074,4.625,4.624,4.625h28.376 c2.55,0,4.625-2.075,4.625-4.625V8.087C41.312,5.537,39.238,3.463,36.688,3.463z M38.913,36.014L38.913,36.014 c0,1.715-1.395,3.11-3.11,3.11H9.197c-1.715,0-3.11-1.395-3.11-3.11V8.986c0-1.715,1.395-3.11,3.11-3.11h26.606 c1.715,0,3.11,1.395,3.11,3.11V36.014z"></path> </g> <path class="st0" d="M33.566,28.539h-8.224c-0.757,0-1.371-0.614-1.371-1.371l0,0c0-0.757,0.614-1.371,1.371-1.371h8.224 c0.757,0,1.37,0.614,1.37,1.371l0,0C34.936,27.925,34.322,28.539,33.566,28.539z"></path> <path class="st0" d="M33.566,35.395H15.742c-0.757,0-1.371-0.614-1.371-1.37l0,0c0-0.757,0.614-1.371,1.371-1.371h17.823 c0.757,0,1.37,0.614,1.37,1.371l0,0C34.936,34.782,34.322,35.395,33.566,35.395z"></path> <circle class="st0" cx="33.566" cy="12.034" r="1.371"></circle> <path class="st0" d="M33.566,21.682h-5.482c-0.757,0-1.371-0.614-1.371-1.371l0,0c0-0.757,0.614-1.371,1.371-1.371h5.482 c0.757,0,1.37,0.614,1.37,1.371l0,0C34.936,21.068,34.322,21.682,33.566,21.682z"></path> </g> </g> </svg> 