<?xml version="1.0" encoding="UTF-8"?> <svg xmlns="http://www.w3.org/2000/svg" xmlns:xlink="http://www.w3.org/1999/xlink" version="1.1" id="Layer_1" x="0px" y="0px" width="45px" height="45px" viewBox="0 0 45 45" style="enable-background:new 0 0 45 45;" xml:space="preserve"> <style type="text/css"> .st0{fill:#1B1B1B;} .st1{fill:#0755E9;} </style> <g> <path class="st0" d="M11.788,16.774h7.526c0.693,0,1.254,0.561,1.254,1.254l0,0c0,0.693-0.561,1.254-1.254,1.254h-7.526 c-0.693,0-1.254-0.561-1.254-1.254l0,0C10.534,17.336,11.095,16.774,11.788,16.774z"></path> <g> <circle class="st1" cx="28.919" cy="29.737" r="1.254"></circle> <circle class="st1" cx="33.739" cy="29.737" r="1.254"></circle> <circle class="st1" cx="28.919" cy="34.826" r="1.254"></circle> <circle class="st1" cx="33.739" cy="34.826" r="1.254"></circle> </g> <path class="st0" d="M35.992,41.312h-9.327c-2.961,0-5.37-2.409-5.37-5.369V24.107c0-2.96,2.409-5.369,5.37-5.369h9.327 c2.96,0,5.369,2.409,5.369,5.369v11.836C41.361,38.903,38.952,41.312,35.992,41.312z M26.666,21.247 c-1.579,0-2.862,1.283-2.862,2.861v11.836c0,1.578,1.283,2.861,2.862,2.861h9.327c1.578,0,2.861-1.283,2.861-2.861V24.107 c0-1.578-1.283-2.861-2.861-2.861H26.666z"></path> <path class="st1" d="M28.919,23.306h5.016c0.693,0,1.254,0.561,1.254,1.254l0,0c0,0.693-0.561,1.254-1.254,1.254h-5.016 c-0.693,0-1.254-0.561-1.254-1.254l0,0C27.665,23.867,28.227,23.306,28.919,23.306z"></path> <path class="st0" d="M17.414,41.311H9.751c-3.376,0-6.113-2.736-6.113-6.113v-25.4C3.64,6.424,6.376,3.688,9.751,3.688h20.383 c3.376,0,6.113,2.736,6.113,6.113v4.886c0,0.692-0.562,1.254-1.254,1.254s-1.254-0.562-1.254-1.254V9.8 c0-1.99-1.614-3.604-3.604-3.604H9.751c-1.99,0-3.604,1.614-3.604,3.604v25.399c0,1.99,1.614,3.604,3.604,3.604h7.661 c0.692,0,1.254,0.562,1.254,1.254s-0.562,1.254-1.254,1.254H17.414z"></path> <path class="st0" d="M11.788,10.5h16.31c0.693,0,1.254,0.561,1.254,1.254v0c0,0.693-0.561,1.254-1.254,1.254h-16.31 c-0.693,0-1.254-0.561-1.254-1.254v0C10.534,11.061,11.095,10.5,11.788,10.5z"></path> <circle class="st0" cx="11.788" cy="31.878" r="1.254"></circle> <path class="st0" d="M11.788,23.049h5.016c0.693,0,1.254,0.561,1.254,1.254l0,0c0,0.693-0.561,1.254-1.254,1.254h-5.016 c-0.693,0-1.254-0.561-1.254-1.254l0,0C10.534,23.61,11.095,23.049,11.788,23.049z"></path> </g> </svg> 