<?xml version="1.0" encoding="UTF-8"?> <svg xmlns="http://www.w3.org/2000/svg" xmlns:xlink="http://www.w3.org/1999/xlink" version="1.1" id="Layer_1" x="0px" y="0px" width="45px" height="45px" viewBox="0 0 45 45" style="enable-background:new 0 0 45 45;" xml:space="preserve"> <style type="text/css"> .st0{fill:#1B1B1B;} .st1{fill:#0755E9;} </style> <g> <path class="st0" d="M33.116,3.921H11.884c-3.658,0-6.635,2.977-6.635,6.635v23.887c0,3.658,2.977,6.635,6.635,6.635h21.233 c3.658,0,6.635-2.977,6.635-6.635V10.557C39.752,6.898,36.775,3.921,33.116,3.921z M37.098,34.443c0,2.195-1.786,3.981-3.981,3.981 H11.884c-2.195,0-3.981-1.786-3.981-3.981V10.557c0-2.195,1.786-3.981,3.981-3.981h21.233c2.195,0,3.981,1.786,3.981,3.981V34.443z "></path> <path class="st1" d="M32.682,13.556c0.542,0.492,0.582,1.332,0.089,1.875l-13.27,14.598c-0.245,0.268-0.588,0.425-0.951,0.434 c-0.01,0-0.021,0-0.031,0c-0.351,0-0.689-0.14-0.938-0.389l-5.308-5.308c-0.518-0.518-0.518-1.358,0-1.877 c0.518-0.518,1.358-0.518,1.877,0l4.325,4.325l12.334-13.569C31.302,13.102,32.142,13.064,32.682,13.556z"></path> </g> </svg> 