<?xml version="1.0" encoding="UTF-8"?> <svg xmlns="http://www.w3.org/2000/svg" xmlns:xlink="http://www.w3.org/1999/xlink" version="1.1" id="Layer_1" x="0px" y="0px" width="261.421px" height="129.055px" viewBox="0 0 261.421 129.055" style="enable-background:new 0 0 261.421 129.055;" xml:space="preserve"> <style type="text/css"> .st0{fill:#FFFFFF;} .st1{opacity:0.3;} .st2{fill:#EFEFEF;} .st3{fill:#ADFE3A;} .st4{fill:#F55D3E;} .st5{fill:#F9B339;} .st6{fill:#1B1B1B;} .st7{fill:#0755E9;} .st8{fill:#04338C;} .st9{fill:#10F9DE;} .st10{fill:#2C163A;} .st11{fill:none;stroke:#0755E9;stroke-miterlimit:10;} .st12{fill:none;stroke:#1B1B1B;stroke-miterlimit:10;} .st13{fill:none;stroke:#10F9DE;stroke-miterlimit:10;} .st14{font-family:'Poppins-Light';} .st15{font-size:12.4867px;} </style> <g> <g> <g> <g> <path class="st6" d="M195.726,129.055H12.007C5.386,129.055,0,123.668,0,117.047V12.007C0,5.386,5.386,0,12.007,0h183.719 c6.621,0,12.007,5.386,12.007,12.007v105.04C207.733,123.668,202.347,129.055,195.726,129.055z M12.007,1.079 c-6.026,0-10.928,4.902-10.928,10.928v105.04c0,6.026,4.902,10.928,10.928,10.928h183.719c6.026,0,10.928-4.902,10.928-10.928 V12.007c0-6.026-4.902-10.928-10.928-10.928H12.007z"></path> </g> <g> <path class="st6" d="M171.591,60.671c-5.088,0-9.228-4.139-9.228-9.228v-8.474c0-0.417,0.338-0.754,0.754-0.754h16.948 c0.416,0,0.754,0.337,0.754,0.754v8.474C180.82,56.531,176.68,60.671,171.591,60.671z M163.871,43.723v7.72 c0,4.257,3.463,7.72,7.72,7.72c4.257,0,7.72-3.463,7.72-7.72v-7.72H163.871z"></path> </g> <g> <path class="st6" d="M177.559,43.561c-0.416,0-0.754-0.337-0.754-0.754V36.84c0-2.874-2.339-5.213-5.214-5.213 c-2.875,0-5.213,2.339-5.213,5.213v5.967c0,0.417-0.338,0.754-0.754,0.754c-0.416,0-0.754-0.337-0.754-0.754V36.84 c0-3.706,3.015-6.721,6.722-6.721c3.706,0,6.722,3.015,6.722,6.721v5.967C178.313,43.224,177.975,43.561,177.559,43.561z"></path> </g> <g> <path class="st6" d="M172.481,55.025h-1.777c-0.416,0-0.754-0.337-0.754-0.754v-2.971c-0.105-0.079-0.207-0.169-0.307-0.269 c-0.513-0.502-0.811-1.214-0.811-1.946c0-1.527,1.237-2.765,2.757-2.765c1.524,0,2.765,1.237,2.765,2.757v0.007 c0,0.873-0.427,1.698-1.118,2.212v2.974C173.235,54.688,172.898,55.025,172.481,55.025z M171.458,53.517h0.269v-2.639 c0-0.287,0.163-0.549,0.42-0.676c0.424-0.209,0.697-0.647,0.697-1.117v-0.007c0-0.689-0.564-1.249-1.256-1.249 c-0.689,0-1.249,0.56-1.249,1.249c0,0.337,0.133,0.655,0.363,0.881c0.114,0.114,0.212,0.186,0.315,0.233 c0.268,0.123,0.44,0.391,0.44,0.686V53.517z"></path> </g> <g> <path class="st6" d="M121.806,74.708H84.871c-6.212,0-11.266-5.054-11.266-11.266V26.506c0-6.212,5.054-11.267,11.266-11.267 h36.935c6.212,0,11.267,5.055,11.267,11.267v36.935C133.073,69.653,128.019,74.708,121.806,74.708z M84.871,16.747 c-5.381,0-9.758,4.378-9.758,9.759v36.935c0,5.381,4.378,9.758,9.758,9.758h36.935c5.381,0,9.759-4.377,9.759-9.758V26.506 c0-5.381-4.378-9.759-9.759-9.759H84.871z"></path> </g> <g> <path class="st6" d="M183.068,74.708h-25.997c-6.212,0-11.266-5.054-11.266-11.266V26.506c0-6.212,5.054-11.267,11.266-11.267 h36.935c0.416,0,0.754,0.337,0.754,0.754c0,0.417-0.338,0.754-0.754,0.754h-36.935c-5.381,0-9.758,4.378-9.758,9.759v36.935 c0,5.381,4.378,9.758,9.758,9.758h25.997c0.416,0,0.754,0.337,0.754,0.754C183.822,74.37,183.485,74.708,183.068,74.708z"></path> </g> <g> <path class="st6" d="M49.605,74.708H37.714c-0.417,0-0.754-0.337-0.754-0.754c0-0.417,0.338-0.754,0.754-0.754h11.892 c5.381,0,9.759-4.377,9.759-9.758V26.506c0-5.381-4.378-9.759-9.759-9.759H12.67c-0.416,0-0.754-0.337-0.754-0.754 c0-0.417,0.338-0.754,0.754-0.754h36.935c6.212,0,11.267,5.055,11.267,11.267v36.935C60.872,69.653,55.818,74.708,49.605,74.708 z"></path> </g> <g> <polygon class="st9" points="107.506,24.671 111.202,26.804 115.469,26.804 117.603,30.5 121.299,32.634 121.299,36.902 123.433,40.597 121.299,44.293 121.299,48.561 117.603,50.695 115.469,54.39 111.202,54.39 107.506,56.524 103.81,54.39 99.543,54.39 97.409,50.695 93.713,48.561 93.713,44.293 91.579,40.597 93.713,36.902 93.713,32.634 97.409,30.5 99.543,26.804 103.81,26.804 "></polygon> <path class="st6" d="M104.115,60.387c-0.13,0-0.26-0.034-0.377-0.101l-3.521-2.033h-4.066c-0.27,0-0.518-0.144-0.653-0.377 l-2.033-3.52l-3.521-2.033c-0.233-0.135-0.377-0.384-0.377-0.653v-4.066l-2.033-3.521c-0.134-0.233-0.134-0.521,0-0.754 l2.033-3.52v-4.066c0-0.27,0.144-0.518,0.377-0.653l3.521-2.033l2.033-3.52c0.135-0.233,0.384-0.377,0.653-0.377h4.066 l3.521-2.033c0.233-0.134,0.521-0.134,0.754,0l3.521,2.033h4.065c0.27,0,0.518,0.144,0.653,0.377l2.033,3.52l3.521,2.033 c0.233,0.135,0.377,0.384,0.377,0.653v4.066l2.033,3.52c0.134,0.233,0.134,0.521,0,0.754l-2.033,3.521v4.066 c0,0.269-0.144,0.518-0.377,0.653l-3.521,2.033l-2.033,3.52c-0.135,0.233-0.384,0.377-0.653,0.377h-4.065l-3.521,2.033 C104.375,60.353,104.245,60.387,104.115,60.387z M96.586,56.745h3.833c0.133,0,0.262,0.035,0.377,0.101l3.319,1.917l3.319-1.917 c0.115-0.066,0.245-0.101,0.377-0.101h3.832l1.916-3.318c0.066-0.115,0.162-0.21,0.276-0.276l3.319-1.916v-3.832 c0-0.133,0.035-0.262,0.101-0.377l1.916-3.319l-1.916-3.318c-0.066-0.115-0.101-0.244-0.101-0.377v-3.832l-3.319-1.916 c-0.114-0.066-0.21-0.161-0.276-0.276l-1.916-3.318h-3.832c-0.133,0-0.262-0.035-0.377-0.101l-3.319-1.917l-3.319,1.917 c-0.115,0.066-0.245,0.101-0.377,0.101h-3.833l-1.916,3.318c-0.066,0.115-0.162,0.21-0.276,0.276l-3.319,1.916v3.832 c0,0.133-0.035,0.262-0.101,0.377l-1.916,3.318l1.916,3.319c0.066,0.115,0.101,0.244,0.101,0.377v3.832l3.319,1.916 c0.115,0.066,0.21,0.161,0.276,0.276L96.586,56.745z"></path> </g> <g> <g> <path class="st6" d="M98.392,42.933c-0.504-0.58-0.756-1.342-0.756-2.284c0-0.942,0.252-1.703,0.756-2.284 c0.504-0.581,1.167-0.871,1.989-0.871c0.821,0,1.487,0.287,1.997,0.863c0.51,0.575,0.764,1.339,0.764,2.292 c0,0.954-0.255,1.717-0.764,2.293c-0.51,0.575-1.175,0.862-1.997,0.862C99.56,43.804,98.897,43.514,98.392,42.933z M101.425,42.128c0.247-0.35,0.37-0.844,0.37-1.479s-0.123-1.128-0.37-1.48c-0.247-0.35-0.595-0.526-1.044-0.526 c-0.427,0-0.77,0.178-1.027,0.534c-0.258,0.356-0.386,0.847-0.386,1.471c0,0.624,0.129,1.115,0.386,1.471 c0.257,0.356,0.6,0.534,1.027,0.534C100.83,42.654,101.178,42.479,101.425,42.128z M107.284,37.608h1.611l-7.856,11.505h-1.611 L107.284,37.608z M105.937,48.358c-0.504-0.581-0.756-1.342-0.756-2.285c0-0.942,0.252-1.703,0.756-2.284 c0.504-0.581,1.167-0.871,1.989-0.871c0.822,0,1.488,0.29,1.997,0.871s0.764,1.342,0.764,2.284 c0,0.943-0.254,1.704-0.764,2.285c-0.51,0.58-1.175,0.87-1.997,0.87C107.104,49.228,106.441,48.938,105.937,48.358z M108.961,47.544c0.252-0.356,0.378-0.847,0.378-1.471c0-0.624-0.126-1.115-0.378-1.471c-0.252-0.356-0.597-0.535-1.035-0.535 c-0.438,0-0.784,0.176-1.035,0.527c-0.252,0.351-0.378,0.843-0.378,1.479s0.126,1.129,0.378,1.479 c0.252,0.351,0.597,0.526,1.035,0.526C108.364,48.078,108.709,47.9,108.961,47.544z"></path> </g> </g> <g> <path class="st6" d="M42.199,35.121H19.687c-0.416,0-0.754-0.337-0.754-0.754s0.338-0.754,0.754-0.754h22.512 c0.417,0,0.754,0.337,0.754,0.754S42.615,35.121,42.199,35.121z"></path> </g> <g> <path class="st6" d="M42.199,42.882H19.687c-0.416,0-0.754-0.337-0.754-0.754s0.338-0.754,0.754-0.754h22.512 c0.417,0,0.754,0.337,0.754,0.754S42.615,42.882,42.199,42.882z"></path> </g> <g> <path class="st6" d="M42.199,50.645H19.687c-0.416,0-0.754-0.337-0.754-0.754c0-0.417,0.338-0.754,0.754-0.754h22.512 c0.417,0,0.754,0.337,0.754,0.754C42.953,50.308,42.615,50.645,42.199,50.645z"></path> </g> <g> <path class="st6" d="M42.199,58.408H19.687c-0.416,0-0.754-0.337-0.754-0.754c0-0.417,0.338-0.754,0.754-0.754h22.512 c0.417,0,0.754,0.337,0.754,0.754C42.953,58.07,42.615,58.408,42.199,58.408z"></path> </g> <path class="st7" d="M127.841,95.25H97.627c-5.166,0-9.354,4.188-9.354,9.354v0c0,5.166,4.188,9.354,9.354,9.354h30.215 c5.166,0,9.354-4.188,9.354-9.354v0C137.195,99.438,133.007,95.25,127.841,95.25z"></path> <g> <path class="st6" d="M125.793,115.452H94.445c-4.622,0-8.383-3.76-8.383-8.383c0-4.622,3.76-8.383,8.383-8.383h31.348 c4.622,0,8.383,3.76,8.383,8.383C134.175,111.691,130.415,115.452,125.793,115.452z M94.445,99.766 c-4.027,0-7.303,3.276-7.303,7.303c0,4.027,3.276,7.303,7.303,7.303h31.348c4.027,0,7.303-3.276,7.303-7.303 c0-4.027-3.276-7.303-7.303-7.303H94.445z"></path> </g> <g> <text transform="matrix(1 0 0 1 99.4494 110.2882)" class="st2 st14 st15">Buy</text> </g> </g> </g> <g> <g> <path class="st6" d="M241.069,129.055h-25.08c-0.224,0-0.411-0.17-0.433-0.393l-4.005-41.236 c-0.012-0.122,0.028-0.243,0.111-0.334c0.083-0.091,0.199-0.143,0.322-0.143h33.089c0.123,0,0.239,0.052,0.322,0.143 c0.082,0.091,0.122,0.212,0.111,0.334l-4.005,41.236C241.48,128.885,241.293,129.055,241.069,129.055z M216.384,128.185h24.291 l3.92-40.367h-32.131L216.384,128.185z"></path> </g> <g> <path class="st3" d="M207.052,64.978c-2.819-4.718-3.753-10.291-4.634-15.716c-0.343-2.11-0.569-4.595,0.979-6.068 c1.567-1.491,4.102-1.109,6.143-0.393c5.808,2.037,10.911,6.027,14.288,11.172c3.271,4.983,5.661,14.686-0.922,18.37 C217.178,75.549,209.842,69.646,207.052,64.978z"></path> <path class="st6" d="M219.409,73.67c-4.976,0-10.295-4.394-12.73-8.47l0,0c-2.9-4.855-3.851-10.706-4.69-15.869 c-0.395-2.428-0.534-4.89,1.109-6.453c1.776-1.69,4.562-1.198,6.587-0.488c5.915,2.075,11.067,6.103,14.507,11.344 c2.214,3.374,4.097,9.052,2.998,13.546c-0.595,2.431-1.964,4.262-4.071,5.441C221.941,73.381,220.686,73.67,219.409,73.67z M207.425,64.755c2.883,4.826,9.979,10.169,15.269,7.209c1.888-1.057,3.116-2.702,3.651-4.889 c1.038-4.242-0.766-9.641-2.88-12.863c-3.336-5.082-8.332-8.989-14.068-11.001c-1.796-0.63-4.242-1.089-5.7,0.297 c-1.35,1.285-1.207,3.491-0.85,5.684C203.674,54.278,204.61,60.043,207.425,64.755L207.425,64.755z"></path> </g> <g> <path class="st6" d="M227.873,87.669c-0.196,0-0.374-0.133-0.422-0.333c-2.65-10.975-9.723-27.726-17.612-37.153 c-0.154-0.184-0.13-0.458,0.055-0.612c0.184-0.154,0.458-0.13,0.612,0.055c7.974,9.528,15.117,26.435,17.791,37.506 c0.056,0.233-0.087,0.468-0.32,0.525C227.941,87.665,227.907,87.669,227.873,87.669z"></path> </g> <g> <path class="st3" d="M255.131,57.102c3.38-5.657,4.499-12.338,5.556-18.842c0.411-2.529,0.682-5.509-1.174-7.275 c-1.879-1.788-4.918-1.329-7.365-0.471c-6.963,2.442-13.081,7.226-17.13,13.395c-3.921,5.975-6.787,17.607,1.106,22.024 C242.991,69.776,251.786,62.699,255.131,57.102z"></path> <path class="st6" d="M240.321,67.439c-1.519,0-3.011-0.344-4.41-1.128c-2.504-1.401-4.132-3.578-4.839-6.469 c-1.312-5.363,0.938-12.143,3.583-16.173c4.114-6.267,10.275-11.085,17.349-13.566c2.404-0.843,5.711-1.43,7.809,0.566 c1.94,1.846,1.773,4.773,1.304,7.66c-1.005,6.182-2.144,13.189-5.612,18.995C252.597,62.19,246.251,67.439,240.321,67.439z M256.034,30.189c-1.277,0-2.616,0.339-3.743,0.735c-6.895,2.418-12.901,7.114-16.911,13.223 c-2.545,3.878-4.715,10.379-3.465,15.49c0.647,2.647,2.134,4.638,4.419,5.917c6.388,3.576,14.949-2.859,18.423-8.674l0,0 c3.384-5.663,4.508-12.584,5.501-18.689c0.431-2.652,0.603-5.323-1.045-6.891C258.355,30.483,257.221,30.189,256.034,30.189z"></path> </g> <g> <path class="st6" d="M228.53,87.984c-0.034,0-0.068-0.004-0.102-0.012c-0.233-0.056-0.377-0.291-0.32-0.525 c3.536-14.644,12.984-37.007,23.529-49.607c0.154-0.184,0.429-0.208,0.612-0.055c0.184,0.154,0.208,0.428,0.055,0.612 c-10.46,12.499-19.838,34.705-23.35,49.253C228.904,87.85,228.726,87.984,228.53,87.984z"></path> </g> </g> </g> </svg> 