<?xml version="1.0" encoding="UTF-8"?> <svg xmlns="http://www.w3.org/2000/svg" xmlns:xlink="http://www.w3.org/1999/xlink" version="1.1" id="Layer_1" x="0px" y="0px" width="45px" height="45px" viewBox="0 0 45 45" style="enable-background:new 0 0 45 45;" xml:space="preserve"> <style type="text/css"> .st0{fill:#1B1B1B;} .st1{fill:#0755E9;} .st2{fill:none;stroke:#1B1B1B;stroke-width:2.5;stroke-linecap:round;stroke-linejoin:round;stroke-miterlimit:10;} .st3{fill:#FFFFFF;stroke:#0755E9;stroke-width:2;stroke-miterlimit:10;} .st4{fill:none;stroke:#1B1B1B;stroke-width:2;stroke-linecap:round;stroke-miterlimit:10;} .st5{fill:none;stroke:#0755E9;stroke-width:2;stroke-linecap:round;stroke-miterlimit:10;} .st6{fill:#1B1B1B;stroke:#1B1B1B;stroke-miterlimit:10;} .st7{fill:none;stroke:#0755E9;stroke-width:2;stroke-linecap:round;stroke-linejoin:round;stroke-miterlimit:10;} </style> <g> <g> <path class="st0" d="M33.12,3.92H11.88c-3.65,0-6.63,2.98-6.63,6.64v23.88c0,1.53,0.52,2.93,1.4,4.05c1.2,1.58,3.1,2.59,5.23,2.59 h21.24c2.13,0,4.03-1.01,5.23-2.59c0.88-1.12,1.4-2.52,1.4-4.05V10.56C39.75,6.9,36.77,3.92,33.12,3.92z M33.12,38.43H11.88 c-2.12,0-3.86-1.67-3.97-3.77C7.9,34.59,7.9,34.51,7.9,34.44V10.56c0-2.2,1.79-3.98,3.98-3.98h21.24c2.19,0,3.98,1.78,3.98,3.98 v23.88c0,0.07,0,0.15-0.01,0.22C36.98,36.76,35.24,38.43,33.12,38.43z"></path> </g> </g> <g> <path class="st0" d="M22.439,18.359c-0.516-0.141-1.051-0.213-1.591-0.213c-3.312,0-6.007,2.695-6.007,6.007 s2.695,6.007,6.007,6.007s6.007-2.695,6.007-6.007c0-0.54-0.072-1.076-0.213-1.591c-0.097-0.354,0.111-0.72,0.466-0.817 c0.354-0.097,0.72,0.111,0.817,0.466c0.173,0.63,0.26,1.284,0.26,1.943c0,4.046-3.291,7.337-7.337,7.337s-7.337-3.291-7.337-7.337 s3.291-7.337,7.337-7.337c0.659,0,1.313,0.088,1.943,0.26c0.295,0.081,0.489,0.349,0.489,0.641c0,0.058-0.008,0.117-0.024,0.176 C23.159,18.248,22.793,18.456,22.439,18.359z"></path> <path class="st0" d="M20.847,21.492c0.098,0,0.197,0.005,0.294,0.016c0.365,0.04,0.694-0.223,0.734-0.589 c0.04-0.365-0.223-0.694-0.589-0.734c-0.145-0.016-0.293-0.024-0.439-0.024c-2.201,0-3.991,1.79-3.991,3.991 s1.79,3.991,3.991,3.991s3.991-1.79,3.991-3.991c0-0.367-0.298-0.665-0.665-0.665c-0.367,0-0.665,0.298-0.665,0.665 c0,1.467-1.193,2.661-2.661,2.661s-2.661-1.193-2.661-2.661S19.38,21.492,20.847,21.492L20.847,21.492z"></path> <path class="st1" d="M31.448,17.15c-0.09-0.243-0.313-0.412-0.572-0.433l-2.405-0.189l-0.189-2.405 c-0.02-0.259-0.189-0.482-0.433-0.572c-0.244-0.09-0.517-0.03-0.701,0.154l-2.383,2.383c-0.109,0.109-0.176,0.251-0.192,0.404 l-0.331,3.323l-3.866,3.866c-0.26,0.26-0.26,0.681,0,0.941c0.13,0.13,0.3,0.195,0.47,0.195c0.17,0,0.34-0.065,0.47-0.195 l3.866-3.866l3.323-0.331c0.153-0.015,0.296-0.083,0.404-0.192l2.383-2.383C31.478,17.667,31.538,17.394,31.448,17.15z M28.139,19.125l-2.515,0.251l0.251-2.515l1.195-1.195l0.12,1.533c0.026,0.326,0.285,0.585,0.611,0.611l1.533,0.12L28.139,19.125z"></path> </g> </svg> 