<?xml version="1.0" encoding="UTF-8"?> <svg xmlns="http://www.w3.org/2000/svg" xmlns:xlink="http://www.w3.org/1999/xlink" version="1.1" id="Layer_1" x="0px" y="0px" width="45px" height="45px" viewBox="0 0 45 45" style="enable-background:new 0 0 45 45;" xml:space="preserve"> <style type="text/css"> .st0{fill:#1B1B1B;} .st1{fill:#0755E9;} .st2{fill:none;stroke:#1B1B1B;stroke-width:2.5;stroke-linecap:round;stroke-linejoin:round;stroke-miterlimit:10;} .st3{fill:#FFFFFF;stroke:#0755E9;stroke-width:2;stroke-miterlimit:10;} .st4{fill:none;stroke:#1B1B1B;stroke-width:2;stroke-linecap:round;stroke-miterlimit:10;} .st5{fill:none;stroke:#0755E9;stroke-width:2;stroke-linecap:round;stroke-miterlimit:10;} .st6{fill:#1B1B1B;stroke:#1B1B1B;stroke-miterlimit:10;} .st7{fill:none;stroke:#0755E9;stroke-width:2;stroke-linecap:round;stroke-linejoin:round;stroke-miterlimit:10;} </style> <path class="st0" d="M33.12,3.92H11.88c-3.65,0-6.63,2.98-6.63,6.64v23.88c0,1.53,0.52,2.93,1.4,4.05c1.2,1.58,3.1,2.59,5.23,2.59 h21.24c2.13,0,4.03-1.01,5.23-2.59c0.88-1.12,1.4-2.52,1.4-4.05V10.56C39.75,6.9,36.77,3.92,33.12,3.92z M33.12,38.43H11.88 c-2.12,0-3.86-1.67-3.97-3.77C7.9,34.59,7.9,34.51,7.9,34.44V10.56c0-2.2,1.79-3.98,3.98-3.98h21.24c2.19,0,3.98,1.78,3.98,3.98 v23.88c0,0.07,0,0.15-0.01,0.22C36.98,36.76,35.24,38.43,33.12,38.43z"></path> <g> <g> <path class="st1" d="M16.52,15.346c-0.324-0.325-0.851-0.323-1.175,0c-0.323,0.323-0.323,0.851,0,1.174l1.642,1.643 c0.162,0.162,0.375,0.243,0.587,0.243c0.213,0,0.426-0.081,0.588-0.243c0.323-0.325,0.323-0.852,0-1.175L16.52,15.346z"></path> <path class="st1" d="M15.534,21.67h-2.36c-0.458,0-0.83,0.372-0.83,0.83s0.372,0.83,0.83,0.83h2.36 c0.458,0,0.831-0.372,0.831-0.83S15.992,21.67,15.534,21.67z"></path> <path class="st1" d="M31.826,21.67h-2.36c-0.458,0-0.83,0.372-0.83,0.83s0.372,0.83,0.83,0.83h2.36 c0.458,0,0.831-0.372,0.831-0.83S32.284,21.67,31.826,21.67z"></path> <path class="st1" d="M29.654,15.346c-0.324-0.324-0.85-0.324-1.174,0l-1.642,1.642c-0.157,0.156-0.244,0.364-0.244,0.586 c0,0.223,0.087,0.432,0.244,0.589c0.162,0.162,0.374,0.243,0.587,0.243s0.425-0.081,0.587-0.243l1.642-1.643 C29.977,16.196,29.977,15.669,29.654,15.346z"></path> <path class="st1" d="M22.5,12.344c-0.458,0-0.83,0.372-0.83,0.83v2.36c0,0.458,0.372,0.831,0.83,0.831s0.831-0.373,0.831-0.831 v-2.36C23.331,12.716,22.958,12.344,22.5,12.344z"></path> </g> <path class="st0" d="M25.828,18.312c-1.29-1.024-2.969-1.393-4.605-1.012c-1.903,0.443-3.437,1.953-3.904,3.846 c-0.469,1.897,0.068,3.831,1.437,5.174c0.43,0.421,0.718,1.234,0.718,2.024v1.16c0,1.029,0.837,1.867,1.866,1.867h2.322 c1.029,0,1.866-0.838,1.866-1.867v-1.16c0-0.78,0.305-1.61,0.76-2.065c1.008-1.01,1.562-2.352,1.562-3.778 C27.849,20.857,27.112,19.331,25.828,18.312z M20.884,29.049h3.232v0.455c0,0.252-0.204,0.456-0.455,0.456h-2.322 c-0.251,0-0.455-0.204-0.455-0.456V29.049z M20.831,27.638c-0.089-0.597-0.346-1.598-1.088-2.325 c-1.009-0.99-1.403-2.421-1.056-3.827c0.343-1.383,1.463-2.486,2.855-2.812c1.213-0.285,2.455-0.013,3.408,0.743 c0.945,0.75,1.487,1.874,1.487,3.083c0,1.05-0.408,2.037-1.15,2.782c-0.573,0.574-0.978,1.428-1.117,2.355H20.831z"></path> </g> </svg> 