<?xml version="1.0" encoding="UTF-8"?> <svg xmlns="http://www.w3.org/2000/svg" id="Layer_1" data-name="Layer 1" viewBox="0 0 1080 1080"><defs><style>.cls-1{fill:#d09670;}</style></defs><path class="cls-1" d="M293.11,919.24A205.41,205.41,0,0,1,207.32,901a220.84,220.84,0,0,1-69.85-49.35A239.66,239.66,0,0,1,90.4,779.54,218.46,218.46,0,0,1,72.94,693V160H220.23q-48.61,48.62-48.59,118.44V764.36q0,53.17,37.2,90.35t90.35,35.68q53.13-1.49,88.83-37.95t35.68-89.59V160h97.19V919.25l-7.59-3q-72.88-30.36-151.85-6.07A248,248,0,0,1,293.11,919.24Z"></path><path class="cls-1" d="M1007.32,384.32a218.85,218.85,0,0,0-17.46-86.56,221.73,221.73,0,0,0-119.2-119.2,218.42,218.42,0,0,0-86.55-17.46,236.54,236.54,0,0,0-65.29,9.11q-79,24.28-150.33-6.07l-9.11-3V919.25l9.11-3q71.35-30.36,150.33-6.07a236.66,236.66,0,0,0,65.3,9.11,218.42,218.42,0,0,0,86.55-17.46,221.73,221.73,0,0,0,119.2-119.2A218.81,218.81,0,0,0,1007.33,696V493.11h0V384.32Zm-97.18,380q0,53.17-36.44,89.59t-89.59,36.44q-53.18,0-89.59-36.44t-36.44-89.59V493.11h0V316q0-53.17,36.44-89.59T784.11,190q53.13,0,89.59,36.44T910.14,316V764.36Z"></path></svg> 