<?xml version="1.0" encoding="UTF-8"?> <svg xmlns="http://www.w3.org/2000/svg" xmlns:xlink="http://www.w3.org/1999/xlink" version="1.1" id="Layer_1" x="0px" y="0px" width="350px" height="350px" viewBox="0 0 350 350" style="enable-background:new 0 0 350 350;" xml:space="preserve"> <style type="text/css"> .st0{fill:#FFFFFF;} .st1{fill:#23347A;} </style> <g> <path class="st1" d="M76.3,204.9c0-12.7,0-25.3,0-37.9c0-6.6-0.1-13.1,0-19.7c0-1.7-0.5-2.5-2.2-3.1c-11.9-4-18.6-15.8-16.2-28.1 c2.3-11.8,13.2-20,25.4-19.4c5.4,0.3,8.8,1.8,16.4,7.5c17.2-9.9,34.4-19.9,51.6-29.8c-2.5-11.8,0.5-21.4,10.7-27.8 c8.8-5.6,18-5.3,26.6,0.6c9.4,6.5,12.2,15.8,9.7,27.2c17.1,9.9,34.3,19.8,51.7,29.9c9.3-8.3,19.6-10.5,30.7-3.9 c8.5,5.1,12.3,13.1,11.6,23c-0.7,10-6.8,17-18.6,21.7c0,19.8,0,39.8,0,59.8c11.2,3.6,18.1,11,18.6,23.1c0.4,10-4.1,17.8-13.1,22.4 c-10.6,5.4-20.4,3.2-29.1-4.8c-17.3,10-34.5,19.9-51.7,29.9c2.5,11.7-0.6,21.4-10.7,27.8c-8.8,5.6-18,5.3-26.6-0.6 c-9.4-6.5-12.1-15.8-9.7-27.1c-1.1-0.7-2.3-1.5-3.6-2.2c-15.3-8.9-30.7-17.7-46-26.6c-1.6-0.9-2.5-1-4,0.3c-7.7,6.8-18,8-27.1,3.4 c-8.8-4.4-14-13.7-13.3-23.7c0.7-9.6,7.4-18.1,16.9-21.3C75,205.4,75.5,205.2,76.3,204.9z M100.8,136.7c-3.5,3.8-7.4,6.6-12.2,8.1 c-0.6,0.2-1.2,1.5-1.2,2.3c-0.1,18.7,0,37.3-0.1,56c0,1.4,0.4,2,1.8,2.6c3,1.4,5.9,2.9,8.6,4.9c1.5,1.1,2.4,1.3,4.1,0.4 c11.9-7,24-13.9,36-20.8c3.7-2.1,7-1.6,8.7,1.3c1.8,3,0.6,6.1-3.1,8.2c-6.9,4-13.9,8-20.9,12c-5.7,3.3-11.5,6.6-16.8,9.7 c0,5.2,0,9.9,0,14.9c16.9,9.7,34.1,19.7,50.7,29.3c4.6-2.6,8.6-4.9,12.9-7.4c0-19.4,0-39.2,0-59.2c-6.8-1.9-12.1-5.7-15.6-11.9 c-3.5-6.2-4-12.7-2-19.5C134.8,157.1,117.9,147,100.8,136.7z M244,236.4c0-4-0.3-7.4,0.1-10.8c0.2-1.8-0.3-2.6-1.7-3.5 c-10.9-6.5-21.8-13.1-32.7-19.8c-3.4-2-4.3-5-2.7-7.9c1.7-3,5-3.6,8.4-1.6c3.7,2.2,7.4,4.5,11.1,6.7c7.6,4.6,15.1,9.1,21.9,13.2 c5-3.1,9.4-5.8,14.1-8.8c0-19.2,0-39,0-58.4c-3.6-2.1-7-3.9-10.1-6.1c-1.6-1.1-2.6-1.4-4.3-0.4c-10.9,6.4-21.9,12.7-32.8,19 c-5.6,3.2-11.2,6.4-16.6,9.6c0,0.4-0.1,0.6-0.1,0.8c3.6,13.1-4.6,26.4-16.5,29.8c-0.6,0.2-1.4,1.4-1.4,2.1 c-0.1,18.9-0.1,37.7,0,56.6c0,0.7,0.4,1.7,1,1.9c3.8,2.1,7.7,4.1,12.2,6.3C210.2,255.9,227.4,246,244,236.4z M180.6,91.5 c0,1,0,2,0,3c0,7.9,0,15.7,0,23.6c0,0.8,0,1.7-0.1,2.5c-0.5,2.8-3.1,4.7-5.8,4.5c-3-0.2-5.1-2.5-5.2-5.8c-0.1-8.6,0-17.2-0.1-25.8 c0-0.9-0.3-2.2-0.9-2.5c-3.9-2.2-7.9-4.1-12.2-6.4c-16.6,9.6-33.8,19.5-50.3,29.1c0,4,0.2,7.5-0.1,11c-0.1,1.6,0.2,2.3,1.5,3.1 c3,1.7,6,3.6,9,5.4c13.7,8.3,27.3,16.5,41,24.7c10.6-9.7,24.9-9.8,35.7,0.4c17.2-9.9,34.4-19.8,51.2-29.5c0-5.2,0-9.9,0-15 c-16.9-9.8-34.1-19.7-51.1-29.5c-2.2,1.6-3.9,3.1-5.9,4.2C185.2,89.6,183,90.4,180.6,91.5z M95.2,228.7c-0.1-7.2-6-13.2-13.3-13.2 c-7.4,0-13.4,6-13.3,13.4c0,7.4,6.2,13.3,13.6,13.2C89.3,242,95.2,235.9,95.2,228.7z M95.2,121.2c0-7.3-5.9-13.2-13.2-13.3 c-7.4-0.1-13.4,5.9-13.4,13.3c0,7.3,5.9,13.2,13.1,13.3C89.1,134.6,95.2,128.6,95.2,121.2z M281.5,121.4c0.1-7.3-5.7-13.3-13-13.5 c-7.4-0.1-13.5,5.8-13.6,13.1c-0.1,7.4,5.9,13.5,13.3,13.5C275.4,134.5,281.4,128.6,281.5,121.4z M188.3,67.5 c0-7.3-5.8-13.3-13.1-13.4c-7.4-0.1-13.5,5.8-13.5,13.2c0,7.4,6,13.4,13.3,13.4C182.3,80.7,188.3,74.8,188.3,67.5z M174.9,188.3 c7.3,0,13.3-5.8,13.4-13.1c0.1-7.4-5.9-13.5-13.2-13.5c-7.3,0-13.3,5.8-13.4,13.1C161.6,182.2,167.6,188.3,174.9,188.3z M268.2,242.1c7.3,0,13.2-5.9,13.3-13.2c0-7.4-5.9-13.4-13.3-13.4c-7.2,0-13.2,5.9-13.3,13.2C254.8,236,260.8,242.1,268.2,242.1z M188.3,282.6c0-7.3-5.9-13.3-13.1-13.4c-7.4-0.1-13.5,5.9-13.5,13.2c0,7.3,5.9,13.3,13.1,13.4C182.2,296,188.3,290,188.3,282.6z"></path> <path class="st1" d="M261.1,47.5c10.7,0.1,19.3,8.8,19.2,19.6c-0.1,10.6-8.9,19.3-19.6,19.2c-10.6-0.1-19.3-8.9-19.2-19.6 C241.6,56.1,250.4,47.4,261.1,47.5z M261.1,58.6c-4.5-0.1-8.3,3.7-8.4,8.1c-0.1,4.5,3.6,8.3,8.1,8.5c4.6,0.1,8.5-3.7,8.5-8.3 C269.3,62.4,265.5,58.6,261.1,58.6z"></path> <path class="st1" d="M102.9,286c0,9.1-7.5,16.5-16.7,16.5c-9.2,0-16.7-7.6-16.6-16.9c0.1-9.1,7.7-16.5,16.8-16.4 C95.6,269.3,103,276.9,102.9,286z M86.2,291.4c3.1,0,5.6-2.5,5.6-5.6c0-2.9-2.5-5.4-5.5-5.4c-2.9,0-5.5,2.4-5.6,5.3 C80.7,288.7,83.2,291.4,86.2,291.4z"></path> <path class="st1" d="M108.4,53c2.9-0.1,5.5,2.3,5.7,5.3c0.2,3-2.3,5.7-5.4,5.8c-3.1,0.1-5.7-2.5-5.7-5.5 C103,55.6,105.4,53.1,108.4,53z"></path> <path class="st1" d="M80.8,69.7c3,0,5.4,2.5,5.5,5.4c0.1,3.1-2.5,5.7-5.5,5.6c-3.1,0-5.6-2.6-5.5-5.7 C75.3,72.1,77.8,69.7,80.8,69.7z"></path> <path class="st1" d="M235.9,285.9c-3.1-0.1-5.6-2.7-5.4-5.8c0.1-3,2.7-5.3,5.6-5.3c3.1,0.1,5.6,2.7,5.4,5.8 C241.4,283.5,238.9,285.9,235.9,285.9z"></path> <path class="st1" d="M274.8,280.2c0.1,3.1-2.5,5.6-5.6,5.6c-3,0-5.4-2.5-5.5-5.4c-0.1-3.1,2.5-5.6,5.6-5.6 C272.3,274.8,274.8,277.3,274.8,280.2z"></path> <path class="st1" d="M119.6,291.4c-2.9,0-5.5-2.4-5.6-5.3c-0.1-3.1,2.4-5.7,5.5-5.7c3.1,0,5.6,2.6,5.6,5.6 C125.1,288.9,122.6,291.4,119.6,291.4z"></path> <path class="st1" d="M174.9,130.7c2.9,0,5.5,2.4,5.6,5.3c0.1,3-2.4,5.7-5.4,5.7c-3.1,0-5.6-2.5-5.6-5.6 C169.5,133.2,172,130.7,174.9,130.7z"></path> </g> </svg> 