<?xml version="1.0" encoding="UTF-8"?> <svg xmlns="http://www.w3.org/2000/svg" xmlns:xlink="http://www.w3.org/1999/xlink" version="1.1" id="Layer_1" x="0px" y="0px" width="350px" height="350px" viewBox="0 0 350 350" style="enable-background:new 0 0 350 350;" xml:space="preserve"> <style type="text/css"> .st0{fill:#FFFFFF;} .st1{fill:#23347A;} </style> <g> <path class="st1" d="M141.9,70.4c-4.7-1.9-5.3-2.8-5.3-7.2c0-8.5,0-17,0-25.5c0-4.6,1.6-6.2,6.1-6.2c24.8,0,49.6,0,74.4,0 c4.3,0,5.9,1.7,5.9,6c0,8.5,0,17,0,25.5c0,5.5-1.4,6.8-7,6.8c-0.8,0-1.6,0-3.1,0c0.7,2.1,0.9,4,1.8,5.5c3.6,6.3,7.6,12.4,11.1,18.8 c1.1,2.1,1.9,4.7,1.9,7c0.2,18.2,0,36.4,0.2,54.6c0,1.5,0.8,3.3,1.8,4.4c15.5,15.6,31.1,31.1,46.5,46.8c1.7,1.7,2.9,4,3.6,6.3 c2,6.9,3.5,13.9,5.3,20.9c0.5,1.7,1.5,3.3,2.3,4.9c0.4,0.2,0.9,0.4,1.3,0.6c0.8-1.2,1.5-2.6,2.6-3.6c2.4-2.3,4.8-2.4,7.1-0.1 c6.7,6.6,13.3,13.2,19.9,20c2.6,2.6,2.3,5-0.8,8c-16,16.1-32.1,32.1-48.1,48.1c-1.6,1.6-3.1,3.1-4.7,4.7c-2.6,2.4-5.2,2.5-7.6,0 c-6.5-6.5-13.1-12.9-19.4-19.6c-1.1-1.2-1.7-3.6-1.5-5.3c0.4-2.9,0.1-3.7-3-3.7c-7,0-14-0.1-21,0c-2.9,0.1-5.1-0.8-7.2-2.9 c-9.2-9.3-18.5-18.6-27.7-27.8c-0.8-0.8-1.6-1.5-2.7-2.5c-3.3,3.4-6.5,6.7-9.7,10c-6.8,6.8-13.6,13.5-20.3,20.4 c-2,2-4.1,2.9-6.9,2.9c-6.9-0.1-13.8-0.1-20.7,0c-3.7,0-3.9,0.5-3.4,4.1c0.2,1.5-0.2,3.6-1.2,4.6c-6.6,6.9-13.3,13.6-20.1,20.2 c-2.4,2.4-5,2.1-7.8-0.7C72,303.5,59.3,290.8,46.6,278c-4.7-4.7-9.5-9.5-14.2-14.2c-3.3-3.3-3.3-5.5,0.1-8.9 c5.9-5.9,11.9-11.9,17.8-17.8c3.9-3.9,5.8-3.8,9.8,0.1c0.6,0.6,1.2,1.1,2.3,2.1c1-1.9,2.2-3.5,2.6-5.3c1.9-6.9,3.3-14,5.3-20.9 c0.6-2.3,1.9-4.6,3.6-6.3c15.8-16,31.7-31.9,47.7-47.7c1.4-1.4,1.9-2.5,1.2-4.4c-0.5-1.4-0.5-2.9-0.5-4.4c0-18.3,0-36.6-0.1-54.9 c0-2.5,0.8-4.4,2.5-6.1c5.1-4.9,10.1-10,15-15.1C140.7,73.2,141.2,71.7,141.9,70.4z M220.2,204.8c-2.4,2.5-4.5,4.6-7.3,7.5 c-0.8-1.1-1.3-2.2-2.1-3.1c-14.3-14.4-28.7-28.7-43-43.1c-0.8-0.8-1.7-1.8-2.7-2.4c-2-1.2-4.1-1-5.8,0.7c-1.8,1.8-2,3.9-0.6,6 c0.6,0.9,1.4,1.7,2.2,2.4c14.5,14.5,29,29,43.5,43.5c0.7,0.7,1.5,1.5,2.1,2.2c-2.3,2.4-4.4,4.5-7,7.2c-0.7-1-1.2-2-2-2.8 c-11-11.1-22-22.1-33.1-33.1c-0.8-0.8-1.5-1.6-2.4-2.2c-2.2-1.5-4.4-1.4-6.2,0.6c-1.8,2-1.7,4.2-0.2,6.3c0.5,0.7,1.2,1.3,1.9,1.9 c15.6,15.6,31.2,31.2,46.9,46.8c0.8,0.8,1.9,1.2,2.3,1.4c-2.7,3-4.7,5.3-6.8,7.7c-6.6-6.6-13-13-19.4-19.4 c-2.6-2.6-5.6-2.8-7.6-0.7c-2,2.1-1.7,4.8,0.8,7.4c12.3,12.4,24.7,24.8,37.1,37.1c0.9,0.9,2.6,1.5,3.9,1.5c5.8,0.2,11.6,0.2,17.4,0 c4.6-0.2,8.8,0.2,11.7,4.3c0.1,0.1,0.4,0.1,0.3,0.1c12.4-12.4,24.7-24.7,37.2-37.3c-4.7-2.6-5.1-7.5-6.3-12.2 c-1.3-5.4-2.6-10.9-4.1-16.3c-0.4-1.4-1-2.9-2-3.9c-17-17.2-34.2-34.3-51.3-51.4c-2.5-2.5-5.4-2.7-7.4-0.8c-2.2,2.1-2,4.9,0.7,7.6 c6.9,6.9,13.8,13.9,20.8,20.8c0.7,0.7,1.3,1.4,1.8,1.9c-2.2,2.4-4.3,4.6-6.5,6.9c-0.6-0.5-1-0.9-1.4-1.3 c-11.7-11.7-23.3-23.3-35-35c-2.6-2.6-5.5-2.9-7.6-0.8c-2.1,2.1-1.8,4.9,0.9,7.6c2.5,2.6,5.1,5.1,7.6,7.6 C201,185.8,210.6,195.3,220.2,204.8z M106.4,283.1c2.7-4.9,7.1-4.8,11.8-4.7c5.5,0.2,11-0.1,16.5,0.1c2.3,0.1,3.9-0.6,5.5-2.2 c7.7-7.9,15.5-15.6,23.3-23.4c1.5-1.5,3.1-3,4.6-4.4c-2.1-2.8-3.9-5.3-6.2-8.3c-3.9,4.2-7.8,8.3-11.7,12.4 c-2.4-2.4-4.5-4.6-6.9-7.1c8.2-8.2,16.4-16.4,24.6-24.6c-2.2-2.2-4.3-4.4-6.8-7c-3.6,3.8-7.2,7.6-10.8,11.4 c-2.4-2.3-4.5-4.4-7.1-6.9c3.9-3.6,7.7-7.2,11.3-10.7c-2.5-2.5-4.6-4.7-7-7.3c-3.7,3.8-7.3,7.4-10.7,10.9c-2.3-2-4.5-4.1-7-6.3 c4.7-4.6,9.1-9,13.6-13.4c0.6-0.6,1.4-1.1,1.5-1.8c0.9-5,3.6-8.7,7.8-11.2c-1.4-2.2-2.7-4.2-4-6.3c-8.7,8.5-17.3,17-25.9,25.5 c-2-2-4.1-4.1-6.5-6.5c5.4-5.4,10.7-10.7,16.1-16.1c2.3-2.3,4.5-4.5,6.8-6.8c2.6-2.6,2.8-5.2,0.8-7.4c-2-2.1-5-1.9-7.6,0.7 c-0.5,0.5-1,1-1.5,1.5c-13.3,13.3-26.2,27-40,39.8c-8.1,7.5-13.4,15.8-15.1,26.8c-0.9,5.7-1.3,12.1-6.8,15.7 C81.4,258.1,93.7,270.4,106.4,283.1z M204,70.1c-18.1,0-35.5,0-53.3,0c1.6,5.3-1.4,8.5-4.7,11.6c-4.2,4-8.3,8.1-12.3,12.3 c-1,1.1-1.8,2.9-1.9,4.3c-0.1,16.6-0.1,33.2-0.1,49.8c0,0.9,0.1,1.7,0.1,2.3c3.3,0,6.3,0,9.6,0c0-9.2,0-18.4,0-27.6 c3.3,0,6.2,0,9.5,0c-0.6,12.4,1.1,24.7-1.4,36.6c3.8-2.4,7.1-4.5,11-6.9c0-3,0-6.8,0-10.4c3.3,0,6.3,0,9.5,0c0,3.4,0.2,6.6,0,9.8 c-0.2,2.8,0.4,4.9,2.8,5.7c5.2-3.8,8.3-8.5,6.9-15.1c0-0.1,0.2-0.3,0.3-0.5c3,0,6.1,0,9.2,0c0,2.3,0,4.4,0,6.5 c0,0.6,0.1,1.6,0.6,1.8c2.9,1.8,6,3.6,9.1,5.4c0-4.6,0-9.1,0-13.7c3.2,0,6.3,0,9.6,0c0,3,0,5.9,0,8.4c3.3,0,6.2,0,9.5,0 c0-0.9,0-1.9,0-3c0-9.3,0-18.6,0-27.9c0-6.5,1.3-13.3-0.4-19.4c-1.7-6.1-6.4-11.4-9.7-17.1C205.7,79.1,202.5,75.4,204,70.1z M146.3,60.1c22.5,0,44.7,0,66.9,0c0-6.4,0-12.5,0-18.8c-22.3,0-44.6,0-66.9,0C146.3,47.6,146.3,53.7,146.3,60.1z M42.3,259.3 C58,275,73.7,290.7,89,306c4.2-4.2,8.6-8.6,12.6-12.6c-15.5-15.5-31.2-31.2-46.8-46.8C50.8,250.7,46.4,255.1,42.3,259.3z M295.1,246.3c-15.8,15.8-31.5,31.5-47.1,47.1c4.2,4.2,8.6,8.7,12.5,12.6c15.7-15.6,31.4-31.4,47.2-47.1 C303.8,254.9,299.4,250.6,295.1,246.3z"></path> <path class="st1" d="M125.1,66.6c1.2,2.7,2.5,5.4,3.7,8c-49.2,27-70,68.1-62.3,123.9c-1.9,0.4-4.1,1-6.3,1.4 c-0.8,0.2-1.6,0.1-2.3,0.2C45.9,149.4,72.4,89.7,125.1,66.6z"></path> <path class="st1" d="M292.3,200.3c-3.2-0.7-6.2-1.3-8.9-1.9c7.6-51-10-90.5-53-119c1.4-2.4,2.9-5,4.6-7.9c22,13,38.5,30.9,49,54 C294.9,149.4,297.6,174.3,292.3,200.3z"></path> <path class="st1" d="M109.6,99c2,2.4,4,4.6,6.1,7.2c-11.8,10.4-20.6,22.7-26.1,37.4c-5.4,14.6-7,29.7-4.8,45.5 c-3.1,0.5-6.1,1-9,1.5C67,165.7,84.5,118.3,109.6,99z"></path> <path class="st1" d="M265.8,184.5c2.1-31.4-8.3-57.4-31.5-78.5c2-2.3,4-4.7,6-6.9c22.3,14.5,41.2,61.9,34.5,86.3 C271.9,185.1,269,184.8,265.8,184.5z"></path> <path class="st1" d="M155,293.7c0.5-3.2,1-6,1.4-8.5c12.3,0,24.5,0,37,0c0.4,2.4,0.9,5.3,1.5,8.5C181.6,296,168.6,295.9,155,293.7z "></path> <path class="st1" d="M170.4,276c0-3.2,0-6.2,0-9.3c3.1,0,6,0,9.2,0c0,3,0,6,0,9.3C176.6,276,173.5,276,170.4,276z"></path> </g> </svg> 