<?xml version="1.0" encoding="UTF-8"?> <svg xmlns="http://www.w3.org/2000/svg" xmlns:xlink="http://www.w3.org/1999/xlink" version="1.1" id="Layer_1" x="0px" y="0px" width="350px" height="350px" viewBox="0 0 350 350" style="enable-background:new 0 0 350 350;" xml:space="preserve"> <style type="text/css"> .st0{fill:#FFFFFF;} .st1{fill:#23347A;} </style> <g> <path class="st1" d="M172.9,306.4c-39.2-9.7-83.7-51.1-99.8-96.3c-5.2-14.6-9.3-29.5-9.7-45c-0.7-23.5-0.6-47.1-0.7-70.6 c0-3.5,1.4-5.1,5.1-6.1C85,83.6,102,77.8,118.6,70.9c17.8-7.4,35-16,51.6-25.8c3.3-1.9,6-1.9,9.3,0c32,18.6,65.9,33.1,101.6,43.1 c5.1,1.4,6.1,2.8,6.1,8c0,20,0.3,40.1-0.2,60.1c-1.1,41.2-15.6,77.2-43.8,107.5c-14,15-30,27.4-48.5,36.2 c-5.6,2.7-11.8,4.3-17.8,6.4C175.6,306.4,174.3,306.4,172.9,306.4z M276.2,98.3c-1-0.3-2.1-0.7-3.1-1c-7.3-2.4-14.7-4.6-22-7.1 c-25.6-9-50.2-20.2-73.7-33.6c-1.8-1-3.1-1-4.9,0c-3.7,2.2-7.4,4.2-11.2,6.3c-27.1,14.5-55.4,26.1-85,34.6 c-2.1,0.6-2.7,1.6-2.7,3.7c0.1,16.1,0,32.2,0.1,48.3c0.1,19.1,2.8,37.8,9.5,55.9c7.9,21.4,20.1,40,36.4,55.9 c13.7,13.3,29,24.3,46.7,31.7c5.5,2.3,10.8,3.1,16.4,0.4c2.4-1.1,4.9-2.1,7.3-3.2c17.2-8.4,32.2-19.8,45.2-33.8 c25.6-27.4,39.3-59.9,40.8-97.2c0.8-19.7,0.3-39.5,0.4-59.3C276.3,99.4,276.2,98.9,276.2,98.3z"></path> <path class="st1" d="M157.1,184.3c1-1.4,1.5-2.2,2.1-2.9c17.5-17.5,34.9-34.9,52.4-52.3c5.7-5.7,12.2-7.7,19.9-5.2 c11.3,3.8,15.6,18.4,8.2,27.7c-0.9,1.1-1.8,2.1-2.7,3.1c-22,22-44,43.9-66,65.9c-5.7,5.7-12.4,7.9-20.1,5.1c-2.6-1-5.2-2.8-7.2-4.8 c-10.5-10.3-21-20.7-31.3-31.2c-9.4-9.5-7.4-23.8,4.2-29.5c6.6-3.2,13.3-2.8,18.8,2.1c6.8,6,13,12.6,19.5,19 C155.6,182,156.1,182.9,157.1,184.3z M157.1,216.6c2-1.2,4.2-2.1,5.8-3.6c22.3-22.1,44.4-44.2,66.6-66.4c0.5-0.5,1.1-1.1,1.5-1.7 c2.9-4,1.1-9.3-3.7-10.7c-3.2-1-5.6,0.5-7.8,2.7c-19,19-38.1,38-57.1,57c-4,4-6.6,4-10.6,0c-7.3-7.3-14.7-14.7-22-21.9 c-3.3-3.2-7.4-3.3-10.3-0.5c-2.8,2.8-2.7,7,0.4,10.1c10.6,10.7,21.3,21.3,32,31.9C153.2,214.7,155,215.3,157.1,216.6z"></path> <path class="st1" d="M126.1,100.2c-0.1,2.5-1.9,4.1-4.4,5c-7.9,2.8-15.7,5.7-23.7,8.4c-1.8,0.6-2.5,1.4-2.4,3.4 c0.2,4.7,0.1,9.4,0,14.1c0,2.5-0.9,4.5-3.3,5.6c-2.1,1-4.3,0.8-5.7-0.8c-1.1-1.3-2-3.3-2.1-5c-0.2-6.6-0.1-13.2-0.1-19.7 c0-3.1,1.4-5.2,4.4-6.2c9.8-3.4,19.5-6.9,29.3-10.3C122.4,93.3,126.2,95.7,126.1,100.2z"></path> <path class="st1" d="M243.4,227.3c-0.3,0.6-0.7,1.9-1.4,3c-9,13.7-20.4,25.3-33.2,35.4c-2.8,2.2-6,2-8-0.5c-2-2.4-1.7-5.6,1-8 c3.3-2.9,6.7-5.6,9.9-8.5c8-7.2,14.9-15.3,20.9-24.2c1.3-2,2.8-3.6,5.5-3.6C241.2,221.1,243.5,223.5,243.4,227.3z"></path> <path class="st1" d="M191.5,265.3c2.9,0.1,5.4,2.6,5.4,5.5c0,3-2.8,5.7-5.8,5.7c-3.1,0-5.5-2.5-5.4-5.6 C185.7,267.8,188.4,265.3,191.5,265.3z"></path> <path class="st1" d="M141.9,93.1c0,2.9-2.5,5.5-5.6,5.6c-2.9,0.1-5.6-2.6-5.5-5.6c0-2.8,2.6-5.3,5.4-5.5 C139.2,87.5,141.9,90.2,141.9,93.1z"></path> </g> </svg> 