<?xml version="1.0" encoding="UTF-8"?> <svg xmlns="http://www.w3.org/2000/svg" xmlns:xlink="http://www.w3.org/1999/xlink" version="1.1" id="Layer_1" x="0px" y="0px" width="350px" height="350px" viewBox="0 0 350 350" style="enable-background:new 0 0 350 350;" xml:space="preserve"> <style type="text/css"> .st0{fill:#FFFFFF;} .st1{fill:#23347A;} </style> <g> <path class="st1" d="M157.7,299.6c-42.8,0-51.7,0-94.5,0c-12.3,0-21.5-6.6-24.3-17.5c-0.6-2.4-0.9-5-0.9-7.5c0-86,0-113.4,0-199.3 c0-15,9.9-24.9,24.8-24.9c86,0,138,0,223.9,0c15.2,0,25,9.9,25,25.1c0,85.9,0,113.1,0,199c0,15.3-9.9,25.1-25.3,25.1 C243.6,299.6,200.7,299.6,157.7,299.6z M47.5,97.1c0,1.5,0,2.7,0,3.9c0,77.2,0,95.9,0,173.1c0,10.8,5.3,16.2,16,16.2 c85.6,0,137.3,0,222.9,0c10.7,0,16-5.4,16-16.2c0-77.2,0-95.9,0-173.1c0-1.2,0-2.3,0-3.9c-1.6,0-2.8,0-4,0c-4.8,0-9.6,0.1-14.4-0.1 c-3.1-0.1-4.9-1.9-4.8-4.6c0-2.6,1.9-4.4,4.9-4.6c1.2-0.1,2.4,0,3.6,0c4.8,0,9.6,0,14.7,0c0-4.5,0-8.6,0-12.7 c0-1.4-0.1-2.9-0.3-4.2c-1.1-5.5-5.9-10-11.5-10.7c-1.6-0.2-3.3-0.2-4.9-0.2c-85.2,0-136.4,0-221.6,0c-1.6,0-3.3,0-4.9,0.2 c-5.6,0.7-10.8,5.2-11.3,10.7c-0.5,5.5-0.1,11-0.1,16.9c1.4,0,2.7,0,3.9,0c45.8,0,57.5,0,103.3,0c1.2,0,2.4-0.1,3.6,0.2 c2.5,0.5,4.1,2.1,3.9,4.9c-0.2,2.5-1.7,4-4.2,4.3c-1.3,0.1-2.6,0.1-3.9,0.1c-45.4,0-56.9,0-102.3,0C50.7,97.1,49.3,97.1,47.5,97.1z "></path> <path class="st1" d="M173.8,186.5c-27.2-32.5-16.2-75.4,10.4-95.2c26.9-19.9,64.4-16.5,87.4,8.4c22.3,24.2,22.6,62.4,0.7,87 c-22.5,25.3-62.2,30.7-91.6,6.3c-0.8,0.8-1.7,1.5-2.5,2.3c-12.7,12.7-25.5,25.5-38.2,38.2c-0.8,0.8-1.5,1.6-2.4,2.2 c-2.2,1.6-4.4,1.4-6.2-0.5c-1.7-1.8-1.8-3.9-0.2-6c0.6-0.8,1.3-1.5,2-2.1c12.7-12.7,25.5-25.5,38.2-38.2 C172.1,188.2,172.9,187.4,173.8,186.5z M279.2,143.8c-0.1-31-25.3-56.2-56.1-56c-30.9,0.1-55.9,25.4-55.8,56.4 c0.1,30.7,25.4,55.6,56.3,55.6C254,199.6,279.3,174.2,279.2,143.8z"></path> <path class="st1" d="M95.3,108.7c15,0,29.9,0,44.9,0c1,0,2,0,2.9,0c2.7,0.2,4.7,2.2,4.5,4.7c-0.2,2.8-1.8,4.4-4.6,4.5 c-1.1,0.1-2.2,0-3.3,0c-29.8,0-23.3,0-53.1,0c-8.1,0-14.1,3.7-17.5,11.1c-3.2,7-2.1,13.7,2.8,19.6c3.8,4.7,9,6.6,15,6.6 c28.3,0,20.2,0,48.5,0c1.7,0,3.5,0,5.2,0c4.6,0,6.9,1.5,6.9,4.6c0,3.1-2.2,4.6-6.9,4.6c-30.5,0-24.6,0.1-55.1-0.1 c-11.7-0.1-20.3-5.9-25-16.5c-4.7-10.5-3.2-20.5,4.2-29.4c5.3-6.4,12.3-9.8,20.6-9.8C100.8,108.7,79.9,108.7,95.3,108.7 C95.3,108.7,95.3,108.7,95.3,108.7z"></path> <path class="st1" d="M94,132c13.9,0,27.8,0,41.6,0c1.2,0,2.4,0,3.6,0.2c2.4,0.4,3.7,2,3.8,4.3c0.1,2.3-1.1,4-3.5,4.6 c-1,0.3-2.2,0.3-3.2,0.3c-28.2,0-20,0-48.2,0c-1.1,0-2.2-0.1-3.2-0.3c-2.3-0.7-3.7-2.5-3.1-4.6c0.4-1.6,2.1-3,3.5-4.1 c0.8-0.6,2.3-0.3,3.5-0.3C102.6,132,80.1,132,94,132z"></path> <path class="st1" d="M199.5,236.5c9.4,0,18.8,0,28.1,0c1.2,0,2.7-0.2,3.5,0.5c1.3,1.2,3,2.9,3,4.4c0,1.5-1.9,2.9-3.2,4.2 c-0.4,0.4-1.5,0.3-2.2,0.3c-19.5,0-39.1,0-58.6,0c-3.5,0-5.6-1.8-5.6-4.6c0-2.8,2.1-4.7,5.5-4.7 C179.9,236.5,189.7,236.5,199.5,236.5z"></path> <path class="st1" d="M199.6,231.8c-9.6,0-19.2,0-28.8,0c-4.1,0-6.2-1.5-6.3-4.5c0-3,2.1-4.7,6.1-4.7c19.3,0,38.6,0,57.9,0 c4.5,0,7.3,3.4,5.2,6.5c-0.9,1.4-3.3,2.6-5,2.6C219,232,209.3,231.8,199.6,231.8z"></path> <path class="st1" d="M111.5,190.4c9.6,0,19.2,0,28.8,0c4.1,0,6.2,1.6,6.1,4.7c-0.1,3-2.2,4.6-6.3,4.6c-19.1,0-38.2,0-57.3,0 c-0.4,0-0.9,0-1.3,0c-3-0.2-4.9-1.9-5-4.6c-0.1-2.8,1.9-4.7,5.1-4.7C91.7,190.3,101.6,190.4,111.5,190.4z"></path> <path class="st1" d="M199.2,259.9c-9.7,0-19.4,0-29.1,0c-3.6,0-5.7-2-5.6-5c0.2-2.7,2.1-4.3,5.5-4.3c8.5,0,17,0,25.5,0 c10.9,0,21.8,0,32.7,0c4.1,0,6.1,1.6,6.1,4.7c-0.1,2.9-2.2,4.5-6,4.5C218.7,259.9,209,259.9,199.2,259.9z"></path> <path class="st1" d="M92.4,232.3c-3.5,0-7,0.1-10.5,0c-3.3-0.1-5.3-1.9-5.3-4.6c-0.1-2.8,2-4.7,5.4-4.8c7.2-0.1,14.4-0.1,21.6,0 c3.6,0,5.5,1.8,5.5,4.7c0,2.9-2,4.6-5.6,4.6C99.9,232.4,96.1,232.3,92.4,232.3z"></path> <path class="st1" d="M92.9,237c3.7,0,7.4-0.1,11.1,0c3.2,0.1,4.9,1.7,5,4.4c0.1,2.8-1.8,4.8-5,4.8c-7.5,0.1-15.1,0.1-22.6,0 c-3,0-4.9-1.9-4.9-4.6c0-2.7,1.8-4.5,4.8-4.6C85.3,236.9,89.1,237,92.9,237z"></path> <path class="st1" d="M92.7,218.2c-3.7,0-7.4,0.1-11.1,0c-3-0.1-4.9-1.9-5-4.5c-0.1-2.7,1.9-4.7,5.1-4.7c7.4-0.1,14.8-0.1,22.3,0 c3.2,0,5.2,1.9,5.1,4.7c0,2.8-1.8,4.5-5.2,4.5C100.2,218.3,96.4,218.2,92.7,218.2z"></path> <path class="st1" d="M92.8,260.2c-3.7,0-7.4,0.1-11.1,0c-3.2-0.1-5.2-1.9-5.1-4.7c0.1-2.6,2-4.5,5-4.5c7.5-0.1,15.1-0.1,22.6,0 c3,0,4.9,1.9,4.9,4.6c0,2.7-1.7,4.5-4.8,4.6C100.5,260.3,96.7,260.2,92.8,260.2z"></path> <path class="st1" d="M69.5,69.2c1.7,0,3.5-0.1,5.2,0c2.5,0.2,4,1.7,4.1,4.3c0.1,2.7-1.3,4.6-3.9,4.8c-3.6,0.3-7.2,0.3-10.7,0 c-2.6-0.3-4-2.2-3.8-4.9c0.2-2.5,1.7-4,4.2-4.2C66.2,69.1,67.9,69.2,69.5,69.2z"></path> <path class="st1" d="M102.2,69.2c1.6,0,3.3-0.1,4.9,0c2.7,0.2,4.2,1.7,4.4,4.3c0.1,2.7-1.4,4.5-4,4.7c-3.5,0.3-7,0.3-10.4,0 c-2.6-0.2-4.1-1.9-4-4.7c0.1-2.7,1.6-4.2,4.2-4.4C98.9,69.1,100.6,69.2,102.2,69.2z"></path> <path class="st1" d="M134.7,69.2c1.7,0,3.5-0.1,5.2,0c2.5,0.2,4,1.8,4.2,4.2c0.2,2.6-1.3,4.6-3.9,4.8c-3.6,0.3-7.2,0.3-10.8,0 c-2.6-0.2-4-2.2-3.8-4.8c0.2-2.5,1.6-4,4.2-4.2C131.5,69.1,133.1,69.2,134.7,69.2z"></path> <path class="st1" d="M172,142c1-26.8,21.9-47.9,49-49.5c4.2-0.3,6.6,1.3,6.9,4.3c0.2,3-2,4.8-6.2,5.1c-20.5,1.3-36,14.9-39.8,34.9 c-0.4,1.9-0.4,3.9-0.5,5.9c-0.3,3.8-2.1,5.9-4.9,5.8C173.5,148.2,171.8,145.9,172,142z"></path> <path class="st1" d="M274.6,145.4c-0.8,26.8-22.9,48.8-49.7,49.6c-3.8,0.1-6-1.4-6.2-4.3c-0.2-3,1.7-4.7,5.8-5.1 c0.7-0.1,1.3-0.1,2-0.2c16.1-1.5,27.9-9.7,34.7-24.2c2.3-5,3-10.8,4-16.4c0.7-4,2.2-6,5.2-5.7C273.2,139.4,274.7,141.6,274.6,145.4 z"></path> </g> </svg> 