<?xml version="1.0" encoding="UTF-8"?> <svg xmlns="http://www.w3.org/2000/svg" xmlns:xlink="http://www.w3.org/1999/xlink" version="1.1" id="Layer_1" x="0px" y="0px" width="350px" height="350px" viewBox="0 0 350 350" style="enable-background:new 0 0 350 350;" xml:space="preserve"> <style type="text/css"> .st0{fill:#FFFFFF;} .st1{fill:#3B6BB2;} </style> <g> <path d="M115.6,328.8c-2.2-0.8-4.6-1.4-6.7-2.5c-7.2-4.1-10.7-10.5-10.7-18.8c0-35.7,0-71.5,0-107.2c0-26.6,0-53.2,0-79.9 c0-13.8,8.5-22.2,22.3-22.2c61,0,122.1,0,183.1,0c15.1,0,20,3.4,25.2,17.4c0,65.3,0,130.5,0,195.8c-1.4,3-2.4,6.3-4.1,9.1 c-3,4.8-8,6.9-13.3,8.3C246.1,328.8,180.9,328.8,115.6,328.8z M117.1,108.6c32.3,32.3,64.6,64.6,96.3,96.3 c31.9-31.9,64.2-64.2,96.3-96.3C245.7,108.6,181.3,108.6,117.1,108.6z M108.8,116.8c0,64.5,0,128.9,0,193.2 c32.4-32.4,64.6-64.6,96.5-96.6C173.4,181.5,141.1,149.2,108.8,116.8z M222,213.4c31.9,32,64.1,64.2,96.3,96.3 c0-64.1,0-128.5,0-192.7C286,149.3,253.8,181.5,222,213.4z M213.6,221.9c-31.9,32-64.2,64.2-96.3,96.3c64,0,128.4,0,192.6,0 C277.7,286,245.4,253.8,213.6,221.9z"></path> <path d="M328.8,79.5c-0.2,0.1-0.4,0.2-0.5,0.3c-1.4,2.5-3.7,3.4-6.3,2.6c-2.8-0.9-3.5-3.2-3.4-6c0.1-4.9,0-9.8,0-14.7 c0-11.2,0-22.4,0-33.5c0-3,0.4-5.7,3.7-6.7c3.2-1,5,0.9,6.6,3.3C328.8,43.1,328.8,61.3,328.8,79.5z"></path> <path d="M24.9,328.8c-3.6-2.5-4.8-5.4-2.6-7.8c1.2-1.3,3.6-2.3,5.4-2.3c16-0.2,31.9-0.1,47.9-0.1c2.8,0,5.5,0.1,6.8,3.2 c1.3,3.1-0.5,5.3-2.8,7.1C61.4,328.8,43.1,328.8,24.9,328.8z"></path> <path d="M46.8,138.1c-5.2,6.2-9.9,11.8-14.6,17.5c-0.6,0.7-1.1,1.4-1.7,2.1c-2.1,2.2-5.2,2.5-7.3,0.7c-2.2-1.9-2.5-4.8-0.5-7.2 c3.1-3.8,6.2-7.6,9.4-11.3c5.1-6.2,10.2-12.3,15.4-18.4c3-3.6,6.4-3.6,9.3-0.1c8.2,9.7,16.3,19.5,24.4,29.3c1.7,2,2.3,4.3,0.8,6.6 c-1.2,2-3.3,2.8-5.4,2.1c-1.3-0.4-2.6-1.5-3.5-2.6c-4.6-5.4-9.1-10.9-13.7-16.3c-0.5-0.6-1-1.1-1.9-2.1c0,50.2,0,99.9,0,149.5 c0.2,0.3,0.5,0.5,0.7,0.8c0.3-0.7,0.5-1.5,1-2.1c4.6-5.6,9.2-11.1,13.8-16.6c2.4-2.9,5.5-3.5,7.8-1.6c2.5,2,2.5,5.2,0,8.2 c-8,9.7-16.1,19.4-24.2,29.1c-2.9,3.5-6.2,3.5-9.1,0.1c-8.2-9.8-16.4-19.7-24.6-29.5c-1.7-2.1-2.3-4.2-0.8-6.6 c1.4-2.1,3.5-2.8,5.8-2c1.2,0.4,2.4,1.5,3.2,2.5c4.4,5.1,8.6,10.3,12.9,15.4c0.7,0.9,1.5,1.8,2.7,3.2 C46.8,238.4,46.8,188.7,46.8,138.1z"></path> <path d="M288.8,57.3c-50.4,0-100.1,0-150.5,0c5.5,4.6,10.4,8.7,15.3,12.8c1.2,1,2.5,2,3.7,3.1c2.6,2.3,3.1,5.4,1.1,7.7 c-1.9,2.3-5,2.4-7.7,0.2c-8.9-7.3-17.7-14.7-26.5-22.1c-0.9-0.8-1.9-1.5-2.8-2.3c-3.6-3.1-3.7-6.2,0-9.3c8.4-7,16.7-14,25.1-21 c1.5-1.3,3-2.6,4.6-3.8c2.6-1.9,5.4-1.8,7.3,0.4c1.9,2.1,1.7,5.4-0.7,7.5c-5.3,4.6-10.7,9-16.1,13.5c-0.9,0.8-1.8,1.6-3.1,2.7 c50.2,0,99.9,0,150.3,0c-1.2-1-2-1.7-2.8-2.4c-5.3-4.4-10.6-8.8-15.9-13.3c-2.9-2.4-3.5-5.5-1.6-7.8c2-2.5,5-2.6,7.9-0.2 c9.9,8.2,19.7,16.4,29.5,24.6c3.2,2.7,3.3,6,0.1,8.7c-9.9,8.4-19.9,16.7-30,25c-2.5,2.1-5.6,1.8-7.5-0.4c-1.8-2.2-1.5-5.3,1-7.4 C275.7,68.2,281.9,63,288.8,57.3z"></path> <path d="M108.4,51.9c0,8.2,0,16.4,0,24.6c0,3.9-1.8,6.1-5,6.2c-3.3,0.1-5.2-2.2-5.2-6.2c0-16.3,0-32.6,0-48.9c0-3.8,1.9-6.1,5-6.2 c3.2-0.1,5.2,2.3,5.2,6.3C108.4,35.7,108.4,43.8,108.4,51.9z"></path> <path d="M52.2,98.1c8.1,0,16.2,0,24.3,0c3.9,0,6.1,1.8,6.2,5c0.1,3.3-2.2,5.2-6.2,5.2c-16.3,0-32.6,0-48.9,0c-3.9,0-6.2-1.9-6.2-5 c-0.1-3.2,2.3-5.2,6.3-5.3C35.8,98.1,44,98.1,52.2,98.1z"></path> </g> </svg> 