<?xml version="1.0" encoding="UTF-8"?> <svg xmlns="http://www.w3.org/2000/svg" xmlns:xlink="http://www.w3.org/1999/xlink" version="1.1" id="Layer_1" x="0px" y="0px" width="350px" height="350px" viewBox="0 0 350 350" style="enable-background:new 0 0 350 350;" xml:space="preserve"> <style type="text/css"> .st0{fill:#FFFFFF;} .st1{fill:#3B6BB2;} </style> <g> <path d="M179.9,218.1c0,3.4,0,6.4,0,9.8c1.2,0,2.4,0,3.5,0c29.9,0,59.9,0.3,89.8-0.1c11.6-0.2,18.2,7.8,17.1,17.2 c-0.1,0.6,0,1.2,0,2.2c5.8,0,11.5,0,17.1,0c1.9,0,3.8,0.1,5.6,0.5c6.3,1.5,10.8,7,10.8,13.5c0.1,16.3,0.1,32.6,0,49 c-0.1,7.7-6.4,13.8-14.1,13.9c-16.2,0.1-32.4,0.1-48.6,0c-7.7-0.1-14-6.3-14-14c-0.1-16.2-0.1-32.4,0-48.7 c0.1-7.9,6.3-14,14.2-14.2c6.3-0.1,12.6-0.1,18.9-0.1c0.1,0,0.1-0.1,0.5-0.4c0-1.4,0.1-2.9,0-4.5c-0.3-2.8-1.9-4.3-4.7-4.6 c-0.5,0-1,0-1.5,0c-30.7,0-61.5,0-92.2,0c-0.7,0-1.4,0-2.3,0c0,3.2,0,6.2,0,9.6c8.6,0,17.2,0.1,25.8-0.1c1.1,0,2.3-1.4,3.3-2.3 c3.3-3.2,5.5-3.2,8.7-0.1c2.8,2.7,5.6,5.5,8.3,8.3c2.5,2.6,2.5,5,0,7.6c-3.5,3.6-7,7.2-10.6,10.6c-1.4,1.3-2,2.7-2,4.7 c0.1,10.8,0.1,21.6,0,32.4c0,9.8-5.9,15.7-15.7,15.7c-15.2,0-30.4,0-45.6,0c-9.6,0-15.5-6-15.5-15.6c0-15.3,0-30.6,0-46 c0-9.3,6.1-15.3,15.5-15.3c5.9,0,11.8,0,17.9,0c0-3.1,0-6.2,0-9.6c-1.1,0-2.3,0-3.4,0c-29.7,0-59.5,0.1-89.2-0.1 c-7.9-0.1-8.7,3.2-7.7,9.7c5.8,0,11.7,0,17.6,0c9.8,0,15.7,5.9,15.7,15.7c0,15.2,0,30.4,0,45.7c0,9.6-6,15.6-15.5,15.6 c-15.3,0-30.6,0-45.9,0c-9.4,0-15.4-6-15.4-15.4c0-15.4,0-30.8,0-46.3c0-9.1,6.1-15.2,15.3-15.2c6,0,12,0,18.3,0c0-1.6,0-2.9,0-4.3 c0.1-8.8,6.2-14.9,15-14.9c30.5,0,61.1,0,91.6,0c1.2,0,2.4,0,3.7,0c0-3.3,0-6.3,0-9.8c-29.4-2.2-53.7-14.5-71.6-38.2 c-17.8-23.6-23.3-50.3-17.1-79.2c9.9-45.8,53.1-77.9,100.4-74.6c47,3.3,83.7,39.7,88.7,84.9c3,27.4-4.4,52-22.2,73.1 C230.5,205.1,207.4,216.2,179.9,218.1z M88.5,121.7c-0.1,48.1,38.5,86.9,86.6,87c47.3,0.1,86.3-38.7,86.4-86 c0.1-47.9-38.3-86.8-86-87C127.7,35.5,88.6,74.1,88.5,121.7z M64.5,256.7c-7.6,0-15.2,0-22.8,0c-4.3,0-6,1.7-6,6 c0,15.2,0,30.4,0,45.7c0,4.3,1.7,6,6,6c15.2,0,30.4,0,45.6,0c4.3,0,6-1.7,6-6c0-15.2,0-30.4,0-45.7c0-4.3-1.7-6-6-6 C79.7,256.7,72.1,256.7,64.5,256.7z M285.8,256.7c-7.7,0-15.4,0-23.1,0c-4.3,0-6,1.7-6,6c0,15.2,0,30.4,0,45.7c0,4.3,1.7,6,6,6 c15.2,0,30.4,0,45.6,0c4.3,0,6-1.7,6-6c0-15.2,0-30.4,0-45.7c0-4.3-1.7-6-6-6C300.8,256.7,293.3,256.7,285.8,256.7z M174.1,278.2 c7.6-7.5,14.6-14.6,21.5-21.4c-14.5,0-29.5,0-44.4,0c-3.2,0-5,2-5,5.5c0,15.5,0,31,0,46.5c0,3.9,1.8,5.6,5.8,5.6 c4.7,0,9.4,0,14.1,0c10.7,0,21.4,0,32.1,0c3.3,0,5.5-1.5,5.5-4.3c0.2-8.9,0.1-17.7,0.1-27.1c-1.1,1-1.8,1.6-2.5,2.3 c-7.4,7.4-14.7,14.7-22.1,22.1c-3,3-5.3,3-8.3,0.1c-6-5.9-11.9-11.9-17.8-17.8c-2.9-2.9-2.9-5.3,0.1-8.3c2.7-2.8,5.5-5.6,8.3-8.3 c2.7-2.7,5.1-2.7,7.8-0.1C171.1,274.9,172.8,276.8,174.1,278.2z M163.3,285c4.2,4.2,8.2,8.2,11.7,11.7 c13.3-13.3,26.9-26.9,40.6-40.6c-0.5-0.5-1.3-1.2-2.2-2.1c-0.9,0.8-1.7,1.6-2.5,2.3c-10.5,10.5-21.1,21.1-31.6,31.6 c-3.2,3.2-5.5,3.2-8.7,0c-1.7-1.7-3.5-3.5-5.3-5.3C164.3,283.9,163.6,284.7,163.3,285z"></path> <path d="M98.1,122.1c0-42.5,34.5-76.9,77.1-76.8c42.3,0,76.8,34.7,76.7,76.9c-0.1,42.6-34.7,77-77.4,76.9 C132.4,198.9,98.1,164.4,98.1,122.1z M242.2,122.5c-0.1-37.8-30.1-67.8-67.7-67.6c-36.8,0.1-66.9,30.5-66.8,67.4 c0.1,37.4,30.4,67.4,67.9,67.2C212.1,189.3,242.4,158.9,242.2,122.5z"></path> <path d="M160.6,107.8c0-4.7-0.1-8.9,0.1-13.2c0.1-1.6,0.6-3.4,1.4-4.7c2.6-4.3,5.5-8.4,8.3-12.5c2.8-4.1,6.5-4,9.4,0 c0.2,0.3,0.4,0.7,0.7,1c7.3,8.4,10.8,18,9.1,29.2c-0.2,1.1,0.5,2.5,1.1,3.5c3.1,4.6,4.5,9.6,3,15.1c-0.6,2.1,0.1,3.3,1.5,4.6 c5.6,5.5,11.2,11.1,16.9,16.8c-2.4,2.2-4.6,4.2-6.9,6.3c-5.5-5.6-11.3-11.5-17.1-17.3c-8.6,6.1-16.7,6.6-24.9,0.7 c-0.8-0.6-2.1-0.6-3.1-0.6c-8.9,0-17.8,0.1-26.7-0.1c-1.8,0-3.7-0.7-5.3-1.6c-4.3-2.6-8.4-5.4-12.5-8.3c-3.9-2.7-3.9-6.3,0-8.9 c4.3-2.9,8.6-5.9,13-8.6c1.4-0.8,3.2-1.3,4.8-1.3C142.1,107.7,151.1,107.8,160.6,107.8z M175.1,112.6c-5.2-0.1-9.6,4.1-9.7,9.4 c-0.1,5.2,4.1,9.7,9.3,9.8c5.4,0.1,9.8-4.2,9.9-9.5C184.6,117,180.3,112.6,175.1,112.6z M156,117.4c-5.9,0-11.8,0.4-17.6-0.1 c-5-0.4-8.4,2.1-12,4.8c4.8,4.4,6.2,4.9,12,4.9c5.9,0,11.9,0,17.6,0C156,123.6,156,120.7,156,117.4z M175,88.1 c-4.5,4.2-5.8,9.4-4.5,15.1c3.1,0,6.1,0,9.1,0C180.7,97.3,179.5,92.2,175,88.1z"></path> <path d="M179.7,59.9c0,3.1,0,6,0,9.2c-3,0-6,0-9.3,0c0-3,0-6,0-9.2C173.4,59.9,176.3,59.9,179.7,59.9z"></path> <path d="M228,117.4c3.2,0,6,0,9.2,0c0,3,0,6.1,0,9.3c-2.9,0-5.9,0-9.2,0C228,123.8,228,120.7,228,117.4z"></path> <path d="M170.3,184.4c0-3.1,0-6.1,0-9.2c3.1,0,6.2,0,9.3,0c0,3.1,0,6,0,9.2C176.6,184.4,173.6,184.4,170.3,184.4z"></path> </g> </svg> 