<?xml version="1.0" encoding="UTF-8"?> <svg xmlns="http://www.w3.org/2000/svg" xmlns:xlink="http://www.w3.org/1999/xlink" version="1.1" id="Layer_1" x="0px" y="0px" width="350px" height="350px" viewBox="0 0 350 350" style="enable-background:new 0 0 350 350;" xml:space="preserve"> <style type="text/css"> .st0{fill:#FFFFFF;} .st1{fill:#3B6BB2;} </style> <g> <path d="M140,178.9c-32.3-6.9-50.7-36.3-46.3-65.7c4.2-28,29.3-49.1,58.2-48.7c29.8,0.4,59.1,26.2,56.6,62.5c8.6,0,17.2,0,25.8,0 c0.7,0,1.5-0.6,2-1.1c21.8-21.7,43.5-43.4,65.2-65.2c0.1-0.1,0.2-0.3,0.4-0.8c-1-0.1-1.8-0.2-2.6-0.2c-4.4,0-8.8,0-13.2,0 c-3.5,0-5.7-2-5.6-4.9c0.1-2.8,2.1-4.7,5.5-4.7c9.1,0,18.2,0,27.3,0c3.8,0,5.6,1.8,5.6,5.5c0,9.1,0,18.2,0,27.3 c0,3.5-2,5.7-4.9,5.6c-2.9-0.1-4.7-2.2-4.7-5.8c0-5.1,0-10.2,0-16c-1.1,1.1-1.9,1.7-2.6,2.4c-21.5,21.4-42.9,42.9-64.3,64.4 c-2.2,2.2-4.5,3.2-7.7,3.2c-9.3-0.2-18.6-0.1-28-0.1c-0.7,2.1-1.3,4.1-2.1,6c-9.2,22-25.7,34.3-49.4,37.2c-1.6,0.2-3.4,1.1-4.6,2.2 c-8.1,7.9-16.1,15.9-24,24c-1.9,1.9-3.9,2.8-6.6,2.8c-10.6-0.1-21.2,0-31.8-0.1c-1.9,0-3.3,0.5-4.7,1.9 c-14.4,14.5-28.8,28.9-43.3,43.3c-1,1-2.3,2.4-3.6,2.5c-1.6,0.1-3.8-0.4-4.7-1.5c-0.9-1.1-0.9-3.3-0.7-4.9c0.1-1,1.3-1.9,2.2-2.8 c15.1-15.2,30.3-30.3,45.4-45.5c1.9-1.9,4-2.7,6.7-2.7c10.6,0.1,21.2,0.1,31.8,0c1.5,0,3.3-0.7,4.4-1.8 C127.7,191.3,133.7,185.2,140,178.9z M198.8,122.2c-0.1-26.5-21.6-48.1-47.9-48.1c-26.8,0-48.3,21.5-48.2,48.3 c0,26.4,21.8,47.9,48.5,47.8C177.3,170.1,198.8,148.4,198.8,122.2z"></path> <path d="M280.5,203.8c0-29.7,0-59.5,0-89.2c0-5.5,1.4-6.9,6.9-6.9c8.5,0,17,0,25.5,0c4.3,0,6,1.7,6,6c0,60.1,0,120.1,0,180.2 c0,4.3-1.7,6-6,6c-8.7,0-17.4,0-26.1,0c-4.7,0-6.3-1.6-6.3-6.3C280.5,263.7,280.5,233.8,280.5,203.8z M309.1,290.2 c0-57.7,0-115.2,0-172.6c-6.5,0-12.7,0-18.9,0c0,57.7,0,115.1,0,172.6C296.6,290.2,302.7,290.2,309.1,290.2z"></path> <path d="M232.4,222.8c0-23.2,0-46.4,0-69.7c0-5.5,1.4-6.9,6.9-6.9c8.5,0,17,0,25.5,0c4.3,0,6,1.7,6,6c0,47.2,0,94.5,0,141.7 c0,4.3-1.7,6-6,6c-8.8,0-17.6,0-26.4,0c-4.3,0-6-1.7-6-6C232.4,270.2,232.4,246.5,232.4,222.8z M242.3,155.9c0,45,0,89.7,0,134.3 c6.4,0,12.6,0,18.8,0c0-44.8,0-89.5,0-134.3C254.7,155.9,248.6,155.9,242.3,155.9z"></path> <path d="M222.8,239.9c0,17.8,0,35.6,0,53.5c0,5.1-1.5,6.6-6.6,6.6c-8.6,0-17.2,0-25.8,0c-4.3,0-6-1.7-6-6c0-36,0-72.1,0-108.1 c0-4.3,1.7-6,6-6c8.8,0,17.6,0,26.4,0c4.3,0,6,1.7,6,6C222.8,203.8,222.8,221.9,222.8,239.9z M194.2,189.5c0,33.7,0,67.2,0,100.6 c6.4,0,12.5,0,18.8,0c0-33.6,0-67.1,0-100.6C206.7,189.5,200.5,189.5,194.2,189.5z"></path> <path d="M174.7,259.3c0,11.4,0,22.8,0,34.2c0,4.9-1.6,6.4-6.5,6.4c-8.6,0-17.2,0-25.8,0c-4.5,0-6.1-1.7-6.1-6.2 c0-23.1,0-46.2,0-69.4c0-4.5,1.6-6.1,6.2-6.1c8.7,0,17.4,0,26.1,0c4.5,0,6.1,1.6,6.1,6.2C174.8,236,174.7,247.7,174.7,259.3z M164.9,290.2c0-20.9,0-41.6,0-62.2c-6.4,0-12.6,0-18.8,0c0,20.8,0,41.4,0,62.2C152.4,290.2,158.6,290.2,164.9,290.2z"></path> <path d="M88.2,268.7c0-8.4,0-16.8,0-25.2c0-4.3,1.7-6,6-6c8.8,0,17.6,0,26.4,0c4.3,0,6,1.7,6,6c0,16.8,0,33.6,0,50.5 c0,4.3-1.7,6-6,6c-8.8,0-17.6,0-26.4,0c-4.3,0-6-1.7-6-6C88.2,285.5,88.2,277.1,88.2,268.7z M98,290.2c6.5,0,12.7,0,18.9,0 c0-14.4,0-28.6,0-42.9c-6.4,0-12.6,0-18.9,0C98,261.6,98,275.8,98,290.2z"></path> <path d="M59.1,299.9c-4.4,0-8.8,0-13.2,0c-3.9,0-5.7-1.8-5.7-5.7c0-9,0-18,0-27c0-3.9,1.8-5.7,5.7-5.7c9,0,18,0,27,0 c3.9,0,5.7,1.8,5.7,5.7c0,9,0,18,0,27c0,3.9-1.8,5.7-5.7,5.7C68.3,300,63.7,299.9,59.1,299.9z M68.9,271.3c-6.5,0-12.7,0-18.9,0 c0,6.4,0,12.6,0,18.9c6.4,0,12.6,0,18.9,0C68.9,283.7,68.9,277.6,68.9,271.3z"></path> <g> <path d="M143.5,126.3c2.4-1.1,4.3-2.6,5.6-4.6c1.3-2,2-4.4,2-7.2c0-2.8-0.7-5.3-2-7.3c-1.3-2-3.2-3.6-5.6-4.7 c-2.4-1.1-5.3-1.6-8.7-1.6h-15.7V139h7.1V128h8.6c0.5,0,1,0,1.5,0l7.8,11.1h7.6l-8.8-12.5C143.2,126.5,143.4,126.4,143.5,126.3z M141.6,108.9c1.6,1.3,2.4,3.2,2.4,5.6c0,2.4-0.8,4.3-2.4,5.6c-1.6,1.3-3.9,2-7,2h-8.3V107h8.3C137.7,107,140,107.6,141.6,108.9z"></path> <path d="M184.9,123.4c-0.8-1.3-1.9-2.3-3.2-3.1c-1.3-0.8-2.8-1.4-4.4-1.9c-1.6-0.5-3.2-0.9-4.8-1.3c-1.6-0.4-3.1-0.7-4.4-1.1 c-1.3-0.4-2.4-1-3.2-1.7c-0.8-0.7-1.2-1.6-1.2-2.8c0-0.9,0.3-1.8,0.8-2.6c0.6-0.8,1.5-1.4,2.7-1.9c1.2-0.5,2.8-0.7,4.7-0.7 c1.7,0,3.4,0.2,5.2,0.7c1.8,0.5,3.6,1.2,5.3,2.3l2.2-5.5c-1.7-1.1-3.6-1.9-5.9-2.5c-2.2-0.6-4.5-0.9-6.8-0.9 c-3.5,0-6.4,0.5-8.6,1.6c-2.3,1-4,2.4-5.1,4.1c-1.1,1.7-1.7,3.6-1.7,5.7c0,2,0.4,3.7,1.2,5c0.8,1.3,1.9,2.3,3.2,3.1 c1.3,0.8,2.8,1.4,4.4,1.9c1.6,0.5,3.2,0.9,4.8,1.3c1.6,0.3,3.1,0.7,4.4,1.1c1.3,0.4,2.4,1,3.2,1.7c0.8,0.7,1.3,1.6,1.3,2.8 c0,0.9-0.3,1.8-0.9,2.5c-0.6,0.7-1.5,1.3-2.7,1.8c-1.2,0.4-2.8,0.7-4.8,0.7c-2.4,0-4.7-0.4-6.9-1.2c-2.2-0.8-4.1-1.8-5.7-3 l-2.4,5.5c1.6,1.3,3.8,2.4,6.5,3.3c2.7,0.9,5.5,1.3,8.5,1.3c3.5,0,6.4-0.5,8.7-1.6c2.3-1,4-2.4,5.1-4.1c1.1-1.7,1.7-3.6,1.7-5.6 C186.2,126.3,185.8,124.6,184.9,123.4z"></path> </g> </g> </svg> 